<?xml version="1.0" standalone="no"?>
<!DOCTYPE svg PUBLIC "-//W3C//DTD SVG 1.1//EN" "http://www.w3.org/Graphics/SVG/1.1/DTD/svg11.dtd" >
<svg xmlns="http://www.w3.org/2000/svg">
<metadata>Generated by IcoMoon</metadata>
<defs>
<font id="icomoon" horiz-adv-x="512">
<font-face units-per-em="512" ascent="480" descent="-32" />
<missing-glyph horiz-adv-x="512" />
<glyph unicode="&#x20;" d="" horiz-adv-x="256" />
<glyph unicode="&#xe600;" d="M311.413 128.632c-11.055 1.759-11.307 32.157-11.307 32.157s32.484 32.158 39.564 75.401c19.045 0 30.809 45.973 11.761 62.148 0.795 17.027 24.48 133.662-95.431 133.662-119.911 0-96.225-116.635-95.432-133.662-19.047-16.175-7.285-62.148 11.761-62.148 7.079-43.243 39.564-75.401 39.564-75.401s-0.252-30.398-11.307-32.157c-35.61-5.666-168.586-64.317-168.586-128.632h448c0 64.315-132.976 122.966-168.587 128.632z" />
<glyph unicode="&#xe601;" d="M367.497 77.313c-9.476 1.494-9.692 27.327-9.692 27.327s27.844 27.328 33.912 64.076c16.326 0 26.407 39.069 10.082 52.814 0.681 14.47 20.984 113.588-81.799 113.588-102.782 0-82.479-99.118-81.799-113.588-16.327-13.745-6.244-52.814 10.081-52.814 6.067-36.748 33.913-64.076 33.913-64.076s-0.216-25.833-9.692-27.327c-30.524-4.816-144.503-54.658-144.503-109.313h384c0 54.655-113.979 104.497-144.503 109.313zM172.027 68.595c22.047 13.575 48.813 26.154 70.769 33.712-7.876 11.216-16.647 26.468-22.165 44.531-7.703 6.283-13.972 15.266-17.999 26.301-4.033 11.052-5.561 23.426-4.304 34.842 0.902 8.196 3.239 15.833 6.825 22.544-2.175 23.293-3.707 69.017 26.224 102.366 11.607 12.933 26.278 22.23 43.85 27.843-3.137 32.38-19.58 70.385-83.227 70.385-102.782 0-82.479-99.118-81.799-113.588-16.327-13.745-6.244-52.814 10.081-52.814 6.067-36.748 33.913-64.076 33.913-64.076s-0.216-25.833-9.692-27.327c-30.524-4.817-144.503-54.659-144.503-109.314h164.798c2.355 1.537 4.753 3.070 7.229 4.595z" />
<glyph unicode="&#xe602;" d="M464 416h-416c-26.4 0-48-21.6-48-48v-320c0-26.4 21.6-48 48-48h416c26.4 0 48 21.6 48 48v320c0 26.4-21.6 48-48 48zM199.37 204.814l-135.37-105.446v250.821l135.37-145.375zM88.19 352h335.62l-167.81-126-167.81 126zM204.644 199.151l51.356-55.151 51.355 55.151 105.277-135.151h-313.264l105.276 135.151zM312.63 204.814l135.37 145.375v-250.821l-135.37 105.446z" />
<glyph unicode="&#xe603;" d="M446.059 385.941l-60.117 60.118c-18.669 18.668-55.542 33.941-81.942 33.941h-224c-26.4 0-48-21.6-48-48v-416c0-26.4 21.6-48 48-48h352c26.4 0 48 21.6 48 48v288c0 26.4-15.273 63.273-33.941 81.941zM320 412.219c1.098-0.402 2.226-0.84 3.379-1.318 9.030-3.741 15.299-8.088 17.308-10.097l60.118-60.119c2.009-2.009 6.356-8.277 10.097-17.307 0.478-1.153 0.916-2.281 1.318-3.378h-92.22v92.219zM416 32h-320v384h192v-128h128v-256z" />
<glyph unicode="&#xe604;" d="M446.059 385.941l-60.117 60.118c-18.669 18.668-55.542 33.941-81.942 33.941h-224c-26.4 0-48-21.6-48-48v-416c0-26.4 21.6-48 48-48h352c26.4 0 48 21.6 48 48v288c0 26.4-15.273 63.273-33.941 81.941zM320 412.219c1.098-0.402 2.226-0.84 3.379-1.318 9.030-3.741 15.299-8.088 17.308-10.097l60.118-60.119c2.009-2.009 6.356-8.277 10.097-17.307 0.478-1.153 0.916-2.281 1.318-3.378h-92.22v92.219zM416 32h-320v384h192v-128h128v-256zM128 224h256v-32h-256zM128 160h256v-32h-256zM128 96h256v-32h-256z" />
<glyph unicode="&#xe605;" d="M449.18 448h-385.18v-64h-46.82c-8.8 0-17.18-6.264-17.18-15.064v-32c0-8.8 8.38-16.936 17.18-16.936h46.82v-32h-46.82c-8.8 0-17.18-6.264-17.18-15.064v-32c0-8.8 8.38-16.936 17.18-16.936h46.82v-32h-46.82c-8.8 0-17.18-6.264-17.18-15.064v-32c0-8.799 8.38-16.936 17.18-16.936h46.82v-32h-46.82c-8.8 0-17.18-6.264-17.18-15.064v-32c0-8.8 8.38-16.936 17.18-16.936h46.82v-64h385.18c17.674 0 30.82 15.263 30.82 32.936v416c0 17.673-13.146 31.064-30.82 31.064zM160 0h-64v32h17.18c8.8 0 14.82 8.136 14.82 16.936v32c0 8.801-6.021 15.064-14.82 15.064h-17.18v32h17.18c8.8 0 14.82 8.136 14.82 16.936v32c0 8.801-6.021 15.064-14.82 15.064h-17.18v32h17.18c8.8 0 14.82 8.136 14.82 16.936v32c0 8.801-6.021 15.064-14.82 15.064h-17.18v32h17.18c8.8 0 14.82 8.136 14.82 16.936v32c0 8.801-6.020 15.064-14.82 15.064h-17.18v32h64v-416z" />
<glyph unicode="&#xe606;" d="M127.888 303.792h80.256v-16.048h-80.256zM466.496 46.032l-90.816 90.784c-10.496 10.528-26.288 11.68-38.56 4.528l-48.56 48.56c25.6 28.432 41.28 65.936 41.28 107.2 0 88.656-71.84 160.512-160.496 160.512-88.64 0-160.496-71.856-160.496-160.512 0-88.64 71.856-160.496 160.496-160.496 35.792 0 68.736 11.856 95.44 31.664l49.664-49.632c-7.152-12.304-6-28.064 4.496-38.592l90.816-90.784c12.528-12.544 32.848-12.544 45.408 0l11.344 11.344c12.512 12.544 12.512 32.88-0.016 45.424zM169.008 177.408c-66.48 0-120.368 53.888-120.368 120.368s53.888 120.368 120.368 120.368 120.384-53.888 120.384-120.368-53.888-120.368-120.384-120.368z" />
<glyph unicode="&#xe607;" d="M466.496 0.624l-11.344-11.344c-12.56-12.544-32.88-12.544-45.408 0l-90.816 90.784c-10.496 10.528-11.664 26.304-4.496 38.592l-49.664 49.632c-26.704-19.808-59.648-31.664-95.44-31.664-88.64 0-160.496 71.856-160.496 160.496 0 88.656 71.856 160.512 160.496 160.512 88.656 0 160.496-71.856 160.496-160.512 0-41.264-15.68-78.768-41.28-107.2l48.56-48.56c12.288 7.152 28.064 6 38.56-4.528l90.816-90.784c12.544-12.56 12.544-32.896 0.016-45.424zM289.408 297.776c0 66.48-53.904 120.368-120.384 120.368s-120.384-53.872-120.384-120.368 53.888-120.368 120.368-120.368 120.4 53.888 120.4 120.368zM176.032 256.656h-16.048v31.088h-32.096v16.048h32.096v32.112h16.048v-32.112h32.112v-16.048h-32.112v-31.088z" />
<glyph unicode="&#xe608;" d="M272 80.992h-64v112h64v-112zM256 128.992h-32v-32h32v32zM272 208h-32v32h32v-32zM208 240v32h32v-32h-32zM208 336h32v-32h-32v32zM208 400h32v-32h-32v32zM272 368v-32h-32v32h32zM272 304v-32h-32v32h32zM80 0v432h240v-31.856h-208v-368.288h272.288v304.144h31.712v-336h-336zM336 432h1.968l78.032-78.016v-0.992h-80v79.008z" />
<glyph unicode="&#xe609;" d="M80 0v432h160v-32h-32v-32h32v-32h-32v-32h32v-32h-32v-32h32v-32h32v32h-32v32h32v32h-32v32h32v32h-32v32h32v32h47.856v-96.144h96.144v-335.856h-336zM272 192h-64v-112h64v112zM256 96.992h-32v32h32v-32zM336 432h3.92l76.080-76.080v-2.928h-80v79.008z" />
<glyph unicode="&#xe60a;" d="M487.616 377.312c-60.128 57.056-141.328 66.544-230.768 66.544-89.44 0-170.64-9.472-230.768-66.544-14.064-37.008-21.824-102.72-21.824-144.64 0-41.936 7.76-107.632 21.824-144.64 60.128-57.072 141.328-66.544 230.768-66.544 89.44 0 170.64 9.472 230.768 66.544 14.048 37.008 21.824 102.704 21.824 144.64 0 41.936-7.76 107.648-21.808 144.64zM367.232 227.504l-156.096-100.4c-4.48-2.4-10.528-3.776-10.528 4.176v202.976c0 6.768 5.44 6.864 10.528 4.176l156.096-100.4c2.912-2.912 2.912-7.616 0-10.528z" />
<glyph unicode="&#xe60b;" d="M256 469.76c-135.728 0-245.76-110.032-245.76-245.76s110.032-245.76 245.76-245.76 245.76 110.032 245.76 245.76c0 135.728-110.032 245.76-245.76 245.76zM170.624 108.704v225.584l215.76-113.072-215.76-112.528z" />
<glyph unicode="&#xe60c;" d="M448 416h-384c-17.68 0-32-14.336-32-32v-320c0-17.664 14.32-32 32-32h384c17.664 0 32 14.336 32 32v320c0 17.664-14.336 32-32 32zM184.992 392c8.832 0 15.984-7.168 15.984-16s-7.152-16-15.984-16c-8.848 0-16 7.168-16 16s7.168 16 16 16zM136 392c8.832 0 16-7.168 16-16s-7.168-16-16-16c-8.848 0-16 7.168-16 16s7.152 16 16 16zM87.984 392c8.848 0 16-7.168 16-16s-7.152-16-16-16c-8.832 0-15.984 7.168-15.984 16s7.152 16 15.984 16zM448 64h-384v271.664h384v-271.664zM448 367.664h-224v16h224v-16z" />
<glyph unicode="&#xe60d;" d="M288 128c-17.664 0-32 14.336-32 32v32c0 17.68 14.336 32 32 32h192v-96h-192zM312 198.672c-13.248 0-24-10.752-24-24 0-13.264 10.752-24 24-24 13.264 0 24 10.736 24 24 0 13.248-10.736 24-24 24zM240 192v-32c0-26.496 21.504-48 48-48h160v-64c0-26.496-21.488-48-48-48h-336c-26.496 0-48 21.504-48 48v304c0 26.512 21.504 48 48 48h154.112l-37.584-15.664h-124.512c-13.248 0-24-10.752-24-24 0-13.264 10.752-24 24-24h391.984v-96.336h-160c-26.496 0-48-21.488-48-48zM80.016 304h-32v-32h16v16h16v16zM80.016 256h-32v-32h16.656l-0.656 16 16-0.336v16.336zM80.016 208h-32v-32h16.336l-0.336 16h16v16zM80.016 160h-32v-32h16.336l-0.336 16 16-0.336v16.336zM80.016 112h-32v-32h16v16h16v16zM80.016 64h-32v-32h16.336l-0.336 15.664h16v16.336zM144.016 352.992l188 79.008 36-79.008h-224zM362.336 400h37.664c14.016 0 26.496-6.096 35.28-15.664h-65.296l-7.648 15.664z" />
<glyph unicode="&#xe60e;" d="M272.384 458.672l-85.328-106.672h-85.328c-35.312 0-59.056-34.048-59.056-69.328v-122.672c0-35.28 23.744-64 59.056-64h85.328l85.328-106.672c21.328 0 47.616 0 47.616 0v469.328c-21.328 0-26.288 0-47.616 0zM170.672 138.672h-68.944c-11.792 0-16.384 9.584-16.384 21.328v122.672c0 11.76 4.592 26.672 16.384 26.672h68.944v-170.672zM277.328 53.328l-85.328 85.328v170.672l85.328 85.328v-341.328zM362.672 330.672v-44.432c42.672-8.848 42.672-32.32 42.672-60.048 0-27.792 0-51.248-42.672-60.080v-44.432c64 9.92 85.328 52.992 85.328 104.512 0 51.504-21.328 94.576-85.328 104.496z" />
<glyph unicode="&#xe60f;" d="M459.44 225.024l35.84-35.872c2.336-2.32 2.336-6.096 0-8.432l-12.656-12.656c-2.32-2.32-6.096-2.32-8.432 0l-35.84 35.872-35.872-35.872c-2.336-2.32-6.096-2.32-8.432 0l-12.656 12.656c-2.32 2.336-2.32 6.128 0 8.432l35.872 35.872-35.872 35.872c-2.32 2.336-2.32 6.096 0 8.432l12.656 12.656c2.336 2.336 6.112 2.336 8.432 0l35.872-35.856 35.84 35.856c2.336 2.336 6.128 2.336 8.432 0l12.656-12.656c2.336-2.336 2.336-6.112 0-8.432l-35.84-35.872zM292.4 25.056l-134.064 93.44v212.016l134.064 92.432c17.68 0 43.024-13.376 43.024-29.872v-338.128c0.016-16.512-25.328-29.888-43.024-29.888zM14.976 158.288v130.448c0 16.48 14.336 39.92 32 39.92h96.432v-208.016h-96.432c-17.68-0.016-32 21.136-32 37.648z" />
<glyph unicode="&#xe610;" d="M378.72 310.672l-15.84-32.304c15.152-12.992 24.752-32.272 24.752-53.776 0-23.712-5.376-45.152-23.248-58.016l15.312-27.312c23.376 20.976 38.096 51.408 38.096 85.296-0.016 34.32-15.136 65.136-39.072 86.112zM496.288 423.792l-22.288-27.040c41.568-45.376 67.872-105.84 67.872-172.224 0-66.272-26.256-126.656-67.68-172.016l22.256-27.6c47.408 53.376 76.128 122.368 76.128 199.616-0.016 77.040-29.104 145.92-76.288 199.264zM437.152 368.544l-19.84-28.528c29.472-29.6 48.16-70.4 48.16-115.472 0-45.984-19.44-87.504-49.968-117.264l20.624-27.376c36.88 37.664 59.088 87.744 59.088 144.624 0 55.824-22.368 106.528-58.064 144.016zM0 287.888v-129.44c0-16.496 14.336-37.664 32-37.664h96.432v207.024h-96.432c-17.664 0-32-23.44-32-39.92zM277.456 422.096l-134.096-92.432v-212l134.096-93.44c17.664 0 43.008 13.376 43.008 29.872v338.128c0 16.496-25.344 29.872-43.008 29.872z" horiz-adv-x="576" />
<glyph unicode="&#xe611;" d="M373.2 17.056l-134.080 93.44v212.016l134.080 92.432c17.68 0 43.024-13.376 43.024-29.872v-338.128c0.016-16.512-25.328-29.888-43.024-29.888zM224.208 113.632h-96.432c-17.68 0-32 21.152-32 37.664v129.44c0 16.48 14.336 39.92 32 39.92h96.432v-207.024z" />
<glyph unicode="&#xe612;" d="M233.248 96.752c-1.504 13.168 2.784 26.864 12.896 36.96 5.056 5.056 11.040 8.608 17.376 10.752 0 0 22.992 5.2 38.592 20.8 24.464 24.448 28.592 61.44 12.576 90.256l109.152 109.136c6.656 0.208 13.248 2.832 18.336 7.92 5.6 5.6 7.472 13.856 7.472 13.856 0.768 2.288 2.048 4.432 3.856 6.24 3.632 3.632 8.544 5.168 13.28 4.624 0 0 9.552-1.808 13.248 1.904 14.496 14.496 19.344 33.232 2.56 50.704l0.016 0.016c-0.128 0.128-0.256 0.256-0.384 0.368-0.128 0.128-0.256 0.272-0.368 0.4l-0.016-0.016c-17.472 16.784-36.208 11.952-50.704-2.56-4.272-4.272-1.904-13.248-1.904-13.248 0.544-4.736-0.992-9.648-4.624-13.28-1.808-1.808-3.968-3.088-6.24-3.872 0 0-8.256-1.856-13.856-7.472-5.088-5.088-7.696-11.68-7.92-18.336l-109.136-109.136c-28.8 16.016-65.792 11.872-90.24-12.592-15.6-15.6-20.8-38.592-20.8-38.592-2.144-6.336-5.712-12.32-10.768-17.376-10.096-10.096-23.808-14.384-36.976-12.896-34.688 7.568-69.728-0.176-93.824-24.272-40.384-40.368-34.88-111.504 11.856-160.16l-0.048-0.048c0.352-0.352 0.736-0.688 1.088-1.040 0.352-0.368 0.688-0.736 1.040-1.104l0.048 0.048c48.64-46.72 119.776-52.224 160.16-11.856 24.080 24.096 31.84 59.136 24.272 93.824zM132.528 100.64c-14.112 14.112-14.112 36.992 0 51.104 14.112 14.128 37.008 14.112 51.12 0 14.112-14.112 14.112-36.992 0-51.12-14.112-14.128-37.008-14.128-51.12 0zM416.208 458.336c-2.064 2.064 0.096 7.536 4.8 12.24s10.192 6.848 12.24 4.8c2.064-2.064-0.096-7.536-4.8-12.24-4.704-4.704-10.192-6.848-12.24-4.8zM491.152 383.376c2.064-2.048 7.536 0.096 12.24 4.784 4.704 4.704 6.848 10.192 4.784 12.256-2.064 2.064-7.536-0.096-12.24-4.8-4.704-4.704-6.848-10.176-4.784-12.24zM382.112 424.288c-2.064 2.064 0.080 7.536 4.784 12.24s10.192 6.848 12.24 4.784c2.064-2.064-0.080-7.536-4.784-12.24-4.704-4.704-10.192-6.848-12.24-4.784zM457.072 349.296c2.064-2.064 7.552 0.080 12.256 4.8 4.704 4.704 6.848 10.192 4.8 12.24-2.064 2.048-7.552-0.080-12.256-4.8-4.704-4.704-6.848-10.192-4.8-12.24z" />
<glyph unicode="&#xe613;" d="M512 64v-4q0-8-0.256-11.504t-1.504-8.256-4.752-6.496-9.504-1.744l-112 74.496v-74.496q0-13.008-9.504-22.496t-22.496-9.504h-288q-13.504 0-22.752 9.248t-9.248 22.752v192q0 13.008 9.248 22.496t22.752 9.504h288q13.008 0 22.496-9.504t9.504-22.496v-74.496l112 74.496q6 0 9.504-1.744t4.752-6.496 1.504-8.256 0.256-11.504v-132zM0 351.744q0 39.744 28 68t67.744 28.256 68-28 28.256-68-28.256-68-68-28-67.744 28-28 67.744zM224 351.744q0 39.744 28 68t67.744 28.256 68-28 28.256-68-28.256-68-68-28-67.744 28-28 67.744z" />
<glyph unicode="&#xe614;" d="M506.88 352v30.72c0 11.312-9.184 20.48-20.48 20.48h-460.8c-11.312 0-20.48-9.168-20.48-20.48v-30.72h51.2v-51.2h-51.2v-51.2h51.2v-51.2h-51.2v-51.2h51.2v-51.2h-51.2v-30.72c0-11.312 9.168-20.48 20.48-20.48h460.8c11.296 0 20.48 9.168 20.48 20.48v30.72h-51.2v51.2h51.2v51.2h-51.2v51.2h51.2v51.2h-51.2v51.2h51.2zM199.68 147.2v153.6l128-76.8-128-76.8z" />
<glyph unicode="&#xe615;" d="M254.736 149.776c22.4 0 43.2 6.896 60.384 18.672l-148.72 148.736c-11.776-17.184-18.688-37.952-18.688-60.368 0-9.92 1.376-19.52 3.904-28.624l59.040 12.72-35.984-55.072c19.616-22.096 48.208-36.032 80.064-36.032zM254.736 125.808c-85.712 0-160.816 45.44-202.576 113.52 24.096 39.296 59.328 70.992 101.264 90.8l-34.080 34.080c-51.616-28.144-93.504-71.888-119.344-124.88 45.984-94.304 142.768-159.28 254.736-159.28 43.472 0 84.64 9.824 121.44 27.328l-34.784 34.784c-26.848-10.528-56.080-16.352-86.672-16.352zM509.472 239.328c-45.984 94.304-142.768 159.28-254.736 159.28-31.584 0-61.936-5.216-90.304-14.768l-74.24 43.728-0.928-0.928 308.096-308.096 58.176-60.704 0.928 0.928-39.392 72.448c39.264 27.504 71.248 64.672 92.416 108.112zM384.112 164.16l-37.616 37.6c9.68 16.080 15.264 34.896 15.264 55.024 0 36.608-18.4 68.912-46.432 88.208 59.824-15.744 110.416-54.24 141.968-105.696-18.496-30.176-43.584-55.872-73.2-75.152z" />
<glyph unicode="&#xe616;" d="M345.6 352h-176l-105.6-144v-80c0-17.664 14.336-32 32-32h320c17.664 0 32 14.336 32 32v80l-102.4 144zM359.44 207.648l-32.832-48.048-137.424 0.32-35.216 47.92-65.376 0.368 90.592 127.6h156.816l89.6-127.6-66.16-0.56zM210 256l39.008-0.992v-63.008c0-8.848 6.16-16 15.008-16 8.832 0 14 7.152 14 16v63.008l38.976 0.992-52.992 60.992-54-60.992z" />
<glyph unicode="&#xe617;" d="M429.44 210.816c0 0-17.904 29.328-37.808 29.328-19.872 0-40.752-30.32-40.752-30.32s-21.872 30.288-39.776 30.288c-15.152 0-32.992-20.832-38.16-27.264v-115.84c0-11.6-1.184-21.408-3.568-29.504-2.368-8.064-5.888-14.624-10.544-19.68-4.64-5.056-10.432-8.752-17.376-11.024-6.928-2.288-14.96-3.408-24.080-3.408-8.304 0-15.728 1.248-22.304 3.744-6.576 2.528-12.112 6.096-16.624 10.752s-7.984 10.256-10.4 16.848c-2.4 6.56-3.632 13.904-3.632 22v11.184h31.68c0-10.496-0.080-24.256 3.744-29.6 3.824-5.312 9.664-8 17.52-8 5.296 0 12.864 2.624 12.864 2.624s5.792 4.16 7.536 7.312c1.728 3.12 3.488 11.344 3.488 11.344s0.896 9.28 0.896 14.592v118.496c-7.088 8.016-24.48 25.952-38.416 25.952-17.888 0-42.752-29.824-42.752-29.824s-23.856 29.824-39.776 29.824c-15.904 0-38.768-29.824-38.768-29.824s-6.976 156.096 151.12 172l22.88 31.808 21.888-31.808c163.024-9.936 151.12-172 151.12-172z" />
<glyph unicode="&#xe618;" d="M256 469.76c-135.728 0-245.76-110.032-245.76-245.76s110.032-245.76 245.76-245.76 245.76 110.032 245.76 245.76-110.032 245.76-245.76 245.76zM355.936 268.416c0.096-2.080 0.16-4.176 0.16-6.272 0-63.952-48.688-137.696-137.728-137.696-27.312 0-52.784 7.984-74.192 21.76 3.792-0.464 7.648-0.672 11.552-0.672 22.688 0 43.552 7.728 60.128 20.736-21.168 0.384-39.072 14.384-45.232 33.584 2.944-0.56 5.984-0.864 9.088-0.864 4.432 0 8.704 0.592 12.752 1.696-22.112 4.448-38.832 24.016-38.832 47.456 0 0.208 0 0.416 0.032 0.592 6.528-3.616 14-5.792 21.92-6.048-12.96 8.672-21.504 23.472-21.504 40.288 0 8.88 2.384 17.2 6.56 24.352 23.856-29.312 59.552-48.592 99.76-50.592-0.816 3.536-1.248 7.216-1.248 11.040 0 26.72 21.68 48.416 48.416 48.416 13.92 0 26.496-5.856 35.328-15.28 11.040 2.144 21.408 6.176 30.752 11.728-3.632-11.296-11.296-20.784-21.296-26.784 9.808 1.184 19.12 3.76 27.808 7.632-6.48-9.696-14.72-18.224-24.16-25.056z" />
<glyph unicode="&#xe619;" d="M431.504 272c-8.848 0-16 0-16 0h-31.664l-0.208-20.096c9.568-5.456 15.872-15.824 15.872-27.904l0.672-111.008h-303.68v111.008c0 11.808 6.464 22.016 16 27.568v20.432h-32c0 0-7.168 0-16 0-8.848 0-16 7.168-16 16v16c0 8.848 7.152 16 16 16 8.832 0 16 0 16 0v-32h32v48c0 17.664 14.336 32 32 32h208c17.664 0 32-14.336 32-32l-0.496-48h31.504v32c0 0 7.152 0 16 0 8.832 0 16-7.152 16-16v-16c0-8.832-7.168-16-16-16zM192.496 128h112v16h-112v-16zM192.496 160h112v16h-112v-16zM192.496 192h112v16h-112v-16zM128.496 144c0-8.832 7.152-16 16-16h16c8.832 0 16 7.168 16 16 0 8.848-7.168 16-16 16h-16c-8.832 0-16-7.152-16-16zM352.496 320c0 8.848-7.152 16-16 16h-176c-8.848 0-16-7.152-16-16v-80h208v80zM352.496 160h-16c-8.848 0-16-7.152-16-16 0-8.832 7.152-16 16-16h16c8.832 0 16 7.168 16 16 0 8.848-7.168 16-16 16zM368.496 384h-240c-17.664 0-32-14.336-32-32v80c0 8.848 7.152 16 16 16h272c8.832 0 16-7.152 16-16v-80c0 17.664-14.32 32-32 32zM400.496 80.992c0-8.832-7.168-16-16-16h-272c-8.848 0-16 7.168-16 16 0 8.848 0 16 0 16h304c0 0 0-7.152 0-16zM176.496 16c0-8.832-7.168-16-16-16h-16c-8.848 0-16 7.168-16 16v32h48v-32zM368.496 16c0-8.832-7.168-16-16-16h-16c-8.848 0-16 7.168-16 16v32h48v-32z" />
<glyph unicode="&#xe61a;" d="M331.408 441.6v24.336c0 6.72-5.44 12.16-12.144 12.16h-130.64c-6.72 0-12.16-5.44-12.16-12.16v-24.336h-153.84v-71.776h462.64v71.776h-153.84zM104.32-30.72h296.88l38.976 356.224h-374.848l38.976-356.224zM316.144 44.336l22.656 204.128c1.216 11.040 11.168 19.008 22.224 17.776s19.008-11.168 17.776-22.224l-22.656-204.128c-1.232-11.040-11.168-19.008-22.224-17.776-11.040 1.232-19.008 11.184-17.776 22.224zM232.64 246.864c0 11.12 9.008 20.128 20.128 20.128 11.12 0 20.128-9.008 20.128-20.128v-205.376c0-11.12-9.008-20.128-20.128-20.128s-20.128 9.008-20.128 20.128v205.376zM144.512 266.24c11.040 1.232 20.992-6.736 22.224-17.776l22.656-204.128c1.232-11.040-6.736-20.992-17.776-22.224-11.040-1.216-20.992 6.736-22.224 17.776l-22.656 204.128c-1.216 11.040 6.736 20.992 17.792 22.224z" />
<glyph unicode="&#xe61b;" d="M444.528 353.024c15.344-37.008 8.032-81.184-22.064-111.28-33.136-33.136-83.216-38.32-122.144-16.352l-28.144-30.736 20.080-20.16 12 12c6.128 6.144 16.080 6.144 22.208 0l97.312-98.304c6.144-6.128 6.144-16.080 0-22.208l-44.416-44.416c-6.128-6.144-16.080-6.144-22.208 0l-97.312 98.304c-6.144 6.128-6.144 16.080 0 22.208l10.96 10.96-19.136 19.184-134.576-147.024c-12.272-12.272-32.16-12.272-44.416 0l-11.104 11.104c-12.272 12.272-12.272 32.16 0 44.416l153.312 128.4-101.824 102.096-32.16 0.016-37.216 59.84 29.952 30 61.2-37.456 0.4-31.488 103.008-103.408 29.968 25.088c-29.296 39.936-26.24 96.192 9.856 132.288 29.952 29.952 73.888 37.392 110.8 22.336l-65.984-65.072 55.536-55.536 66.112 65.2zM98.4 65.056c-6.128 6.128-16.064 6.128-22.208 0-6.144-6.144-6.144-16.080 0-22.224 6.144-6.128 16.080-6.128 22.208 0 6.144 6.16 6.144 16.096 0 22.224z" />
<glyph unicode="&#xe61c;" d="M371.504 339.504c-16.64 16.656-43.696 16.656-60.336 0l-55.168-55.168-55.168 55.168c-16.64 16.656-43.696 16.656-60.336 0-16.656-16.656-16.656-43.664 0-60.336l55.152-55.168-55.152-55.168c-16.656-16.656-16.656-43.664 0-60.336 8.32-8.336 19.248-12.496 30.16-12.496s21.84 4.16 30.16 12.496l55.168 55.168 55.168-55.168c8.32-8.336 19.248-12.496 30.16-12.496s21.84 4.16 30.16 12.496c16.656 16.656 16.656 43.664 0 60.336l-55.152 55.168 55.152 55.168c16.656 16.656 16.656 43.664 0 60.336z" />
<glyph unicode="&#xe61d;" d="M477.264 423.472l-39.408 39.392c-16.608 16.624-43.552 16.624-60.16 0l-48.912-48.928c46.48-15.68 86.288-45.76 114.176-84.96l34.32 34.32c16.608 16.624 16.608 43.552 0 60.176zM186.56 415.68l-47.184 47.184c-16.624 16.624-43.552 16.624-60.16 0l-39.392-39.392c-16.624-16.608-16.624-43.552 0-60.176l30.288-30.288c28.768 38.672 69.36 68.032 116.448 82.672zM458.176 195.632c0 109.888-87.296 199.328-196.304 202.896v30.256h13.168v8.272h31.584v38.256h-100.784v-38.256h31.584v-8.272h13.168v-30.192c-110.064-2.4-198.56-92.32-198.56-202.96 0-60.32 26.32-114.464 68.080-151.664l-39.872-56.496v-16.928h26.736l36.464 55.488c32.048-21.152 70.4-33.488 111.68-33.488 43.456 0 83.696 13.696 116.736 36.944l38.72-58.944h26.736v16.928l-42.768 60.592c39.168 37.024 63.632 89.424 63.632 147.568zM266.384 39.392v55.84h-22.56v-55.84c-77.136 5.536-138.592 67.168-143.872 144.4h55.296v22.56h-55.248c5.792 76.688 67.040 137.76 143.808 143.28v-54.72h6.768v-99.28l-87.44-82.352 97.024 74.672v106.96h6.208v54.72c76.768-5.52 138.016-66.576 143.808-143.28h-55.248v-22.56h55.312c-5.28-77.232-66.72-138.864-143.872-144.4z" />
<glyph unicode="&#xe61e;" d="M256 424c-114.896 0-208-93.12-208-208s93.104-208 208-208c114.864 0 208 93.12 208 208s-93.12 208-208 208zM254.32 47.568c-92.784 0-168 75.216-168 168s75.216 168 168 168c92.768 0 168-75.216 168-168 0-92.784-75.232-168-168-168zM302.88 205.904h-47.68v80.512c0 8.736-7.088 15.84-15.824 15.84-8.752 0-15.84-7.088-15.84-15.84v-96.336c0-8.752 7.088-15.824 15.84-15.824h63.504c8.752 0 15.84 7.072 15.84 15.824 0 8.736-7.088 15.824-15.84 15.824z" />
<glyph unicode="&#xe61f;" d="M270.432 336.512l19.968 94.784h-101.584l20.752-94.784h60.864zM209.136 318.768l-67.2-214.128 101.6-84.4 93.776 84.4-65.664 214.128h-62.512zM301.344 289.056l46.912-128.96h28.128v28.928l-75.040 100.032z" />
<glyph unicode="&#xe620;" d="M640 168.992v-88.992c0-17.664-14.336-32-32-32h-88c4.416 0 8 3.584 8 8s-3.584 8-8 8-8-3.584-8-8 3.584-8 8-8h-488c-17.664 0-32 14.336-32 32v88c26.496 0 48 21.504 48 48 0 26.512-21.504 48-48 48v88c0 17.664 14.336 32 32 32h488c-4.416 0-8-3.584-8-8s3.584-8 8-8 8 3.584 8 8-3.584 8-8 8h88c17.664 0 32-14.336 32-32v-87.008c-26.512 0-48-21.488-48-48 0-26.496 21.488-48 48-48zM141.088 256.192h-11.456l-30.752-80.192h11.248l8.8 24.32h33.552l9.328-24.32h12.096l-32.816 80.192zM254.96 235.6c-2.096 5.568-5.264 10.128-9.488 13.696-3.248 2.768-7.168 4.688-11.76 5.744-3.28 0.768-8.048 1.136-14.288 1.136h-27.632v-80.176h28.944c4.864 0 9.136 0.448 12.896 1.376 3.728 0.912 6.928 2.256 9.568 4.016 2.656 1.76 5.088 4.192 7.312 7.264 2.224 3.088 4.048 6.992 5.472 11.68s2.144 10.096 2.144 16.192c-0.016 7.152-1.072 13.504-3.168 19.072zM349.12 256.192h-14.32l-19.248-55.776c-1.936-5.664-3.376-9.936-4.288-12.848-0.816 2.624-2.096 6.576-3.84 11.856l-19.008 56.768h-15.936v-80.192h10.256v68.256l23.168-68.256h9.584l23.392 67.12v-67.12h10.256v80.192zM378.672 256.192h-10.624v-80.192h10.624v80.192zM457.712 256.192h-63.568v-9.44h26.432v-70.752h10.624v70.752h26.496v9.44zM520 352c-4.416 0-8-3.584-8-8s3.584-8 8-8 8 3.584 8 8-3.584 8-8 8zM520 320c-4.416 0-8-3.584-8-8s3.584-8 8-8 8 3.584 8 8-3.584 8-8 8zM520 288c-4.416 0-8-3.584-8-8s3.584-8 8-8 8 3.584 8 8-3.584 8-8 8zM520 256c-4.416 0-8-3.584-8-8s3.584-8 8-8 8 3.584 8 8-3.584 8-8 8zM520 224c-4.416 0-8-3.584-8-8s3.584-8 8-8 8 3.584 8 8-3.584 8-8 8zM520 192c-4.416 0-8-3.584-8-8s3.584-8 8-8 8 3.584 8 8-3.584 8-8 8zM520 160c-4.416 0-8-3.584-8-8s3.584-8 8-8 8 3.584 8 8-3.584 8-8 8zM520 128c-4.416 0-8-3.584-8-8s3.584-8 8-8 8 3.584 8 8-3.584 8-8 8zM520 96c-4.416 0-8-3.584-8-8s3.584-8 8-8 8 3.584 8 8-3.584 8-8 8zM239.184 191.072c-1.792-1.776-4.192-3.168-7.2-4.16s-7.152-1.488-12.432-1.488h-17.12v61.312h16.848c6.32 0 10.896-0.544 13.728-1.648 3.936-1.536 7.28-4.544 10.032-9.056 2.768-4.496 4.144-10.96 4.144-19.344 0-6.064-0.704-11.216-2.112-15.472s-3.392-7.616-5.888-10.144zM130.752 232.432c1.856 5.072 3.296 10.192 4.336 15.312 1.248-4.336 3.152-9.872 5.712-16.608l8.336-22.208h-27.152l8.768 23.504z" horiz-adv-x="640" />
<glyph unicode="&#xe621;" d="M362.064 346.64c-20.624 11.472-46.608 4.016-58.032-16.576l-79.216-142.544-45.328 45.328c-16.656 16.656-43.664 16.656-60.336 0s-16.656-43.664 0-60.336l85.328-85.328c8.064-8.080 18.944-12.528 30.16-12.528 1.968 0 3.952 0.128 5.904 0.432 13.248 1.856 24.88 9.808 31.376 21.52l106.672 192c11.456 20.608 4.032 46.576-16.56 58.032z" />
<glyph unicode="&#xe622;" d="M160 74.672c0-29.456-23.872-53.328-53.328-53.328s-53.328 23.872-53.328 53.328c0 29.456 23.872 53.328 53.328 53.328 29.456 0 53.328-23.872 53.328-53.328zM160 224c0-29.456-23.872-53.328-53.328-53.328s-53.328 23.872-53.328 53.328c0 29.456 23.872 53.328 53.328 53.328 29.456 0 53.328-23.872 53.328-53.328zM160 373.328c0-29.456-23.872-53.328-53.328-53.328s-53.328 23.872-53.328 53.328c0 29.456 23.872 53.328 53.328 53.328 29.456 0 53.328-23.872 53.328-53.328zM309.328 74.672c0-29.456-23.872-53.328-53.328-53.328s-53.328 23.872-53.328 53.328c0 29.456 23.872 53.328 53.328 53.328 29.456 0 53.328-23.872 53.328-53.328zM309.328 224c0-29.456-23.872-53.328-53.328-53.328s-53.328 23.872-53.328 53.328c0 29.456 23.872 53.328 53.328 53.328 29.456 0 53.328-23.872 53.328-53.328zM309.328 373.328c0-29.456-23.872-53.328-53.328-53.328s-53.328 23.872-53.328 53.328c0 29.456 23.872 53.328 53.328 53.328 29.456 0 53.328-23.872 53.328-53.328zM458.672 74.672c0-29.456-23.872-53.328-53.328-53.328s-53.328 23.872-53.328 53.328c0 29.456 23.872 53.328 53.328 53.328 29.456 0 53.328-23.872 53.328-53.328zM458.672 224c0-29.456-23.872-53.328-53.328-53.328s-53.328 23.872-53.328 53.328c0 29.456 23.872 53.328 53.328 53.328 29.456 0 53.328-23.872 53.328-53.328zM458.672 373.328c0-29.456-23.872-53.328-53.328-53.328s-53.328 23.872-53.328 53.328c0 29.456 23.872 53.328 53.328 53.328 29.456 0 53.328-23.872 53.328-53.328z" />
<glyph unicode="&#xe623;" d="M405.328 117.328h-298.672c-23.536 0-42.672-19.136-42.672-42.672s19.136-42.672 42.672-42.672h298.672c23.536 0 42.672 19.136 42.672 42.672s-19.136 42.672-42.672 42.672zM405.328 266.672h-298.672c-23.536 0-42.672-19.136-42.672-42.672s19.136-42.672 42.672-42.672h298.672c23.536 0 42.672 19.136 42.672 42.672s-19.136 42.672-42.672 42.672zM405.328 416h-298.672c-23.536 0-42.672-19.136-42.672-42.672s19.136-42.672 42.672-42.672h298.672c23.536 0 42.672 19.136 42.672 42.672s-19.136 42.672-42.672 42.672z" />
<glyph unicode="&#xe624;" d="M405.328 117.328h-149.328c-23.536 0-42.672-19.136-42.672-42.672s19.136-42.672 42.672-42.672h149.328c23.536 0 42.672 19.136 42.672 42.672s-19.136 42.672-42.672 42.672zM405.328 266.672h-149.328c-23.536 0-42.672-19.136-42.672-42.672s19.136-42.672 42.672-42.672h149.328c23.536 0 42.672 19.136 42.672 42.672s-19.136 42.672-42.672 42.672zM405.328 416h-149.328c-23.536 0-42.672-19.136-42.672-42.672s19.136-42.672 42.672-42.672h149.328c23.536 0 42.672 19.136 42.672 42.672s-19.136 42.672-42.672 42.672zM160 74.672c0-29.456-23.872-53.328-53.328-53.328s-53.328 23.872-53.328 53.328c0 29.456 23.872 53.328 53.328 53.328 29.456 0 53.328-23.872 53.328-53.328zM160 224c0-29.456-23.872-53.328-53.328-53.328s-53.328 23.872-53.328 53.328c0 29.456 23.872 53.328 53.328 53.328 29.456 0 53.328-23.872 53.328-53.328zM160 373.328c0-29.456-23.872-53.328-53.328-53.328s-53.328 23.872-53.328 53.328c0 29.456 23.872 53.328 53.328 53.328 29.456 0 53.328-23.872 53.328-53.328z" />
<glyph unicode="&#xe625;" d="M170.672 416h-42.672c-17.6 0-33.6-7.184-45.2-18.8-11.6-11.6-18.8-27.6-18.8-45.2v-42.672c0-17.6 7.184-33.6 18.8-45.2 11.6-11.6 27.6-18.8 45.2-18.8h42.672c17.6 0 33.6 7.184 45.2 18.8s18.8 27.6 18.8 45.2v42.672c0 17.6-7.184 33.6-18.8 45.2-11.6 11.6-27.6 18.8-45.2 18.8zM384 416h-42.672c-17.6 0-33.6-7.184-45.2-18.8-11.6-11.6-18.8-27.6-18.8-45.2v-42.672c0-17.6 7.184-33.6 18.8-45.2s27.6-18.8 45.2-18.8h42.672c17.6 0 33.6 7.184 45.2 18.8 11.6 11.6 18.8 27.6 18.8 45.2v42.672c0 17.6-7.184 33.6-18.8 45.2-11.6 11.6-27.6 18.8-45.2 18.8zM170.672 202.672h-42.672c-17.6 0-33.6-7.184-45.2-18.8-11.6-11.6-18.8-27.6-18.8-45.2v-42.672c0-17.6 7.184-33.6 18.8-45.2 11.6-11.6 27.6-18.8 45.2-18.8h42.672c17.6 0 33.6 7.184 45.2 18.8 11.6 11.6 18.8 27.6 18.8 45.2v42.672c0 17.6-7.184 33.6-18.8 45.2s-27.6 18.8-45.2 18.8zM384 202.672h-42.672c-17.6 0-33.6-7.184-45.2-18.8s-18.8-27.6-18.8-45.2v-42.672c0-17.6 7.184-33.6 18.8-45.2 11.6-11.6 27.6-18.8 45.2-18.8h42.672c17.6 0 33.6 7.184 45.2 18.8 11.6 11.6 18.8 27.6 18.8 45.2v42.672c0 17.6-7.184 33.6-18.8 45.2-11.6 11.6-27.6 18.8-45.2 18.8z" />
<glyph unicode="&#xe626;" d="M303.344 193.392v14.672h49.008v-14.672h-49.008zM303.344 240.4h49.008v-15.664h-49.008v15.664zM303.344 271.76h49.008v-15.68h-49.008v15.68zM303.344 304.112h49.008v-15.664l-49.008 0.992v14.672zM303.344 337.456h49.008v-16.672h-49.008v16.672zM303.344 368.8h49.008v-15.68h-49.008v15.68zM331.728 93.552c0-51.936-42.112-94.048-94.048-94.048s-94.048 42.112-94.048 94.048c0 35.616 18.8 66.576 47.984 82.544v209.392c0 25.968 22.048 47.008 48.016 47.008s47.024-21.040 47.024-47.008v-211.76c27.008-16.544 45.072-46.208 45.072-80.176zM270.992 164.24v221.248c0 17.312-14.032 31.344-31.344 31.344s-31.344-14.032-31.344-31.344v-219.376c-28.704-11.648-48.992-39.68-48.992-72.56 0-43.28 35.088-78.368 78.368-78.368 43.28 0 78.352 35.088 78.352 78.368 0.016 31.328-18.48 58.128-45.040 70.688zM237.68 30.848c-34.64 0-62.704 28.080-62.704 62.704 0 29.904 20.976 54.816 48.992 61.088v149.472h31.36v-150.688c25.968-7.664 45.056-31.424 45.056-59.872 0-34.624-28.064-62.704-62.704-62.704z" />
<glyph unicode="&#xe627;" d="M0 480h512v-69.12h-512v69.12zM0 336.64h512v-69.12h-512v69.12zM0 193.28h512v-69.12h-512v69.12zM0 49.92h512v-69.12h-512v69.12z" />
<glyph unicode="&#xe628;" d="M0 480h512v-69.12h-512v69.12zM51.2 336.64h409.6v-69.12h-409.6v69.12zM0 193.28h512v-69.12h-512v69.12zM51.2 49.92h409.6v-69.12h-409.6v69.12z" />
<glyph unicode="&#xe629;" d="M0 480h512v-69.12h-512v69.12zM0 336.64h409.6v-69.12h-409.6v69.12zM0 193.28h512v-69.12h-512v69.12zM0 49.92h256v-69.12h-256v69.12z" />
<glyph unicode="&#xe62a;" d="M0 480h512v-69.12h-512v69.12zM102.4 336.64h409.6v-69.12h-409.6v69.12zM0 193.28h512v-69.12h-512v69.12zM256 49.92h256v-69.12h-256v69.12z" />
<glyph unicode="&#xe62b;" d="M331.072 193.728v209.68c0 42.4-34.368 76.752-76.752 76.752s-76.752-34.368-76.752-76.752v-209.68c-29.936-23.024-49.232-59.216-49.232-99.904 0-69.584 56.4-125.984 125.984-125.984 69.584 0 125.984 56.4 125.984 125.984 0 40.688-19.296 76.88-49.232 99.904zM254.32 7.376c-47.744 0-86.448 38.704-86.448 86.448 0 31.808 17.2 59.6 42.784 74.608v225.088c0 24.112 19.552 43.664 43.648 43.664 24.112 0 43.664-19.552 43.664-43.664v-225.088c25.6-15.008 42.8-42.8 42.8-74.608 0-47.744-38.704-86.448-86.448-86.448zM269.056 147.088v19.456c0 8.144-6.592 14.736-14.752 14.736-8.144 0-14.736-6.592-14.736-14.736v-19.456c-23.904-6.48-41.504-28.272-41.504-54.224 0-31.072 25.184-56.24 56.24-56.24 31.072 0 56.256 25.184 56.256 56.24 0 25.952-17.6 47.744-41.504 54.224z" />
<glyph unicode="&#xe62c;" d="M331.072 193.728v209.68c0 42.4-34.368 76.752-76.752 76.752s-76.752-34.368-76.752-76.752v-209.68c-29.936-23.024-49.232-59.216-49.232-99.904 0-69.584 56.4-125.984 125.984-125.984 69.584 0 125.984 56.4 125.984 125.984 0 40.688-19.296 76.88-49.232 99.904zM254.32 7.376c-47.744 0-86.448 38.704-86.448 86.448 0 31.808 17.2 59.6 42.784 74.608v225.088c0 24.112 19.552 43.664 43.648 43.664 24.112 0 43.664-19.552 43.664-43.664v-225.088c25.6-15.008 42.8-42.8 42.8-74.608 0-47.744-38.704-86.448-86.448-86.448zM269.056 147.088v144.896c0 8.144-6.592 14.736-14.752 14.736-8.144 0-14.736-6.608-14.736-14.736v-144.896c-23.904-6.48-41.504-28.272-41.504-54.224 0-31.072 25.184-56.24 56.24-56.24 31.072 0 56.256 25.184 56.256 56.24 0 25.952-17.6 47.744-41.504 54.224z" />
<glyph unicode="&#xe62d;" d="M331.072 193.728v209.68c0 42.4-34.368 76.752-76.752 76.752s-76.752-34.368-76.752-76.752v-209.68c-29.936-23.024-49.232-59.216-49.232-99.904 0-69.584 56.4-125.984 125.984-125.984 69.584 0 125.984 56.4 125.984 125.984 0 40.688-19.296 76.88-49.232 99.904zM254.32 7.376c-47.744 0-86.448 38.704-86.448 86.448 0 31.808 17.2 59.6 42.784 74.608v225.088c0 24.112 19.552 43.664 43.648 43.664 24.112 0 43.664-19.552 43.664-43.664v-225.088c25.6-15.008 42.8-42.8 42.8-74.608 0-47.744-38.704-86.448-86.448-86.448zM269.056 147.088v247.296c0 8.144-6.592 14.736-14.752 14.736-8.144 0-14.736-6.608-14.736-14.736v-247.296c-23.904-6.48-41.504-28.272-41.504-54.224 0-31.072 25.184-56.24 56.24-56.24 31.072 0 56.256 25.184 56.256 56.24 0 25.952-17.6 47.744-41.504 54.224z" />
<glyph unicode="&#xe62e;" d="M188.224 134.256v0l-3.232 4.944c-0.080 0.032-0.144 0.064-0.224 0.096-3.92 5.232-8.944 9.792-14.96 13.264-6.112 3.52-12.656 5.584-19.248 6.32-0.048 0.048-0.112 0.080-0.16 0.112l-9.456 0.56c-4.448 0.032-8.944 1.152-13.072 3.536-1.632 0.928-3.104 2.032-4.464 3.232l-77.328-151.728 63.36 7.76 33.856-51.856 71.408 147.856c-0.704-0.064-1.392-0.096-2.112-0.096-10.896 0-20.272 6.576-24.352 15.984zM386.544 161.68c-4.128-1.696-8.64-2.352-13.136-1.856v0l-6.128-0.352 0.368 0.624c-0.464-0.352-0.928-0.672-1.392-1.008-6.192-0.864-12.32-2.896-18.048-6.24-5.76-3.344-10.592-7.68-14.416-12.656-0.608-0.272-1.216-0.544-1.824-0.816h0.624l-3.36-5.136c-4.080-9.408-13.44-15.984-24.352-15.984-4.192 0-8.144 0.976-11.664 2.704l88.592-152.656 22.352 55.28 60.24-8.080-77.84 146.144zM431.536 276.176l-1.984 3.968c-0.72 1.28-1.376 2.608-1.984 3.968l-0.448 0.88c0 0.032 0 0.064 0.016 0.096-2.4 5.728-3.728 12.032-3.728 18.64 0 6.704 1.36 13.072 3.824 18.88-0.016 0.080-0.016 0.16-0.016 0.24l4.32 8.64v0.016c2.144 3.76 3.36 8.112 3.36 12.752 0 10.624-6.4 19.744-15.568 23.728v0l-4.768 3.12c-0.096 0.24-0.208 0.48-0.32 0.72-5.168 3.808-9.648 8.704-13.072 14.592-3.472 5.984-5.504 12.4-6.24 18.864-0.080 0.112-0.16 0.224-0.24 0.32l-0.32 5.424c1.12 9.92-3.584 20.032-12.8 25.328-4.016 2.32-8.4 3.424-12.736 3.44v0l-4.432 0.256c-8 0.096-16.080 2.176-23.504 6.448-6.208 3.568-11.312 8.32-15.216 13.792-0.096 0.048-0.192 0.096-0.304 0.128l-2.624 4.016c-3.984 9.152-13.104 15.568-23.712 15.568-4.64 0-8.992-1.232-12.752-3.376h-0.016l-3.968-1.984c-6.976-3.904-15.008-6.144-23.568-6.144-7.312 0-14.24 1.632-20.464 4.544-0.032 0-0.064 0-0.112 0l-7.2 3.584c-3.76 2.144-8.112 3.376-12.752 3.376-10.624 0-19.744-6.4-23.728-15.568v0l-2.304-3.52c-0.24-0.096-0.48-0.208-0.72-0.32-3.936-5.744-9.168-10.72-15.584-14.448-6.4-3.712-13.296-5.792-20.208-6.368 0 0-0.016 0-0.016-0.016l-4.192-0.24c-0.624 0.064-1.232 0.112-1.856 0.144 0 0-0.016 0-0.016 0-9.296 0.368-18.496-4.304-23.456-12.928-2.32-4.016-3.424-8.4-3.44-12.736v-0.016l-0.464-7.808c-0.016-0.032-0.032-0.048-0.048-0.064-0.56-6.912-2.608-13.808-6.288-20.224-3.68-6.384-8.592-11.6-14.256-15.552-0.016-0.032-0.032-0.064-0.048-0.096l-3.536-2.304c-9.152-3.984-15.568-13.104-15.568-23.728 0-4.64 1.232-8.992 3.376-12.752v-0.016l3.632-7.248c0-0.032 0-0.064-0.016-0.112 2.896-6.192 4.512-13.104 4.512-20.4 0-8.56-2.24-16.592-6.144-23.568l-1.984-3.968v-0.016c-2.144-3.76-3.376-8.112-3.376-12.752 0-10.624 6.4-19.744 15.568-23.728v0l4.144-2.704c0.128-0.288 0.272-0.576 0.4-0.88 5.44-3.872 10.176-8.928 13.744-15.088 3.504-6.032 5.536-12.496 6.24-19.024 0.032-0.048 0.064-0.080 0.096-0.128l0.304-5.232c-1.12-9.92 3.584-20.016 12.784-25.328 4.016-2.32 8.416-3.424 12.736-3.44l0.016-0.016 9.2-0.544c0.048-0.032 0.112-0.080 0.16-0.112 6.416-0.72 12.8-2.72 18.752-6.144 5.872-3.376 10.752-7.808 14.576-12.912 0.064-0.032 0.144-0.064 0.224-0.096l3.152-4.816c3.984-9.152 13.104-15.568 23.728-15.568 4.64 0 8.992 1.232 12.752 3.376h0.016l8.72 4.368c0.080-0.016 0.16-0.016 0.24-0.016 5.776 2.432 12.128 3.792 18.784 3.792 6.576 0 12.832-1.312 18.544-3.696 0.032 0 0.064 0 0.112 0.016l0.96-0.48c1.36-0.608 2.688-1.264 3.968-1.984l3.968-1.984h0.016c3.776-2.144 8.128-3.376 12.752-3.376 10.624 0 19.744 6.416 23.728 15.568v0l3.28 5.008h-0.608c0.592 0.256 1.184 0.528 1.776 0.8 3.728 4.848 8.432 9.072 14.048 12.32 5.584 3.248 11.568 5.232 17.584 6.080 0.448 0.336 0.912 0.656 1.36 0.992l-0.352-0.608 5.968 0.352c9.92-1.12 20.032 3.584 25.328 12.784 2.32 4.016 3.424 8.4 3.44 12.736v0.016l0.256 4.432c0.016 1.472 0.112 2.944 0.256 4.432l0.064 1.248c0.032 0.048 0.064 0.080 0.080 0.128 0.816 6.064 2.784 12.064 6.016 17.696 3.264 5.68 7.52 10.432 12.416 14.192 0.176 0.384 0.352 0.768 0.512 1.152v-0.496l5.008 3.28c9.152 3.984 15.568 13.104 15.568 23.728 0 4.64-1.232 8.992-3.36 12.752v0zM301.968 235.648c-10.192-9.824-22.864-14.736-38.048-14.736-14.384 0-26.304 4.144-35.76 12.416-9.472 8.272-14.96 19.088-16.48 32.464l29.488 3.584c0.944-7.52 3.472-13.264 7.584-17.232s9.104-5.968 14.96-5.968c6.288 0 11.568 2.384 15.872 7.152 4.288 4.768 6.448 11.2 6.448 19.296 0 7.664-2.064 13.728-6.176 18.208-4.112 4.48-9.136 6.72-15.072 6.72-3.904 0-8.56-0.752-13.984-2.272l3.36 24.816c8.24-0.208 14.528 1.568 18.864 5.36s6.496 8.832 6.496 15.12c0 5.344-1.6 9.6-4.768 12.784-3.184 3.184-7.408 4.768-12.688 4.768-5.2 0-9.648-1.808-13.328-5.424-3.68-3.616-5.92-8.896-6.72-15.824l-28.080 4.768c1.952 9.6 4.896 17.28 8.832 23.040 3.936 5.744 9.424 10.256 16.48 13.552 7.040 3.28 14.944 4.928 23.68 4.928 14.96 0 26.944-4.768 35.984-14.304 7.44-7.808 11.168-16.624 11.168-26.448 0-13.952-7.632-25.072-22.864-33.376 9.104-1.952 16.384-6.32 21.84-13.12 5.456-6.784 8.192-14.992 8.192-24.608 0-13.952-5.088-25.824-15.28-35.664z" />
<glyph unicode="&#xe62f;" d="M224.96 114.816c0-29.424 23.856-53.28 53.28-53.28 8.496 0 16.432 2.176 23.552 5.712l-25.072 47.568 50.656-20.656c2.672 6.352 4.16 13.328 4.16 20.656 0 29.424-23.856 53.28-53.28 53.28-29.424 0-53.28-23.856-53.28-53.28zM499.712 392.208v5.568c0 6.496-5.264 11.776-11.76 11.776h-29.76v18.96c0.016 0.192 0.112 0.384 0.112 0.576 0 9.568-7.744 17.312-17.312 17.36v0.016h-54.208v19.488h-16.288v-19.488h-185.696v19.488h-21.2v-19.488l-61.408-0.032c-9.44-0.112-17.056-7.744-17.152-17.152h-0.032v-19.712h-30.896c-6.496 0-11.76-5.264-11.76-11.776v-5.568h-16.176v-15.088c-7.84-3.472-16.432-11.872-16.432-32.688l-0.56-167.648 9.568-108.944c0-45.648 47.84-42.048 47.84-42.048l-1.808 16.88c-26.944 0-30.24 26.88-30.24 26.88l-9.264 108.368 0.896 159.024c0 0 0.304 18.848 17.232 16.352 4.752-33.184 26.128-60.864 55.36-74.752v-11.392c0-5.344 4.336-9.664 9.664-9.664h24.592c5.36 0 9.664 4.336 9.664 9.664v60.096c0 5.36-4.32 9.696-9.664 9.696h-24.592c-5.328 0-9.664-4.336-9.664-9.696v-9.12c-16.192 5.296-27.968 20.336-27.968 38.304h36.72c6.496 0 11.76 5.264 11.76 11.744v5.28h11.488v18.736h-11.488v5.568c0 6.496-5.264 11.776-11.76 11.776h-5.296v2.192c0.064 0 0.128-0.032 0.192-0.032v17.568h61.216v-50.768c0-23.248 18.832-42.080 42.064-42.080h50.032v-73.984c-27.312-4.576-50.32-18.352-63.936-37.2h-61.408l-20.624-184.544h-19.856v0.848l-25.088 1.136c0.688-6.32 1.328-12.144 1.808-16.88h12.192v-16.048h398.896v34.384h-36.672l-19.488 181.104h-62.896c-13.616 18.832-36.64 32.608-63.936 37.2v73.984h50.032c23.232 0 42.080 18.832 42.080 42.080v50.768h54.144v-17.568c0.032 0 0.048 0.016 0.080 0.016v-2.16h-6.448c-6.496 0-11.76-5.264-11.76-11.776v-5.568h-16.192v-18.736h16.192v-5.28c0-6.48 5.264-11.744 11.76-11.744h53.392c6.496 0 11.76 5.264 11.76 11.744v5.28h16.176v18.736h-16.176zM353.888 114.816c0-41.792-33.872-75.648-75.648-75.648s-75.648 33.872-75.648 75.648c0 41.776 33.872 75.648 75.648 75.648s75.648-33.872 75.648-75.648zM370.512 389.76c0-19.344-15.68-34.992-35.008-34.992h-115.68c-19.344 0-35.008 15.648-35.008 34.992v39.504h185.696v-39.504z" />
<glyph unicode="&#xe630;" d="M492.944 378.368h-471.808c-9.664 0-17.504-7.84-17.504-17.52v-238.464c0-9.664 7.84-17.504 17.504-17.504h471.808c9.664 0 17.52 7.84 19.056 17.504v238.464c-1.552 9.68-9.392 17.52-19.056 17.52zM347.44 334.576h45.568v-45.568h-45.568v45.568zM273.616 334.576h45.568v-45.568h-45.568v45.568zM325.072 260.752v-45.568h-45.568v45.568h45.568zM199.808 334.576h45.568v-45.568h-45.568v45.568zM251.248 260.752v-45.568h-45.568v45.568h45.568zM125.984 334.576h45.568v-45.568h-45.568v45.568zM177.424 260.752v-45.568h-45.568v45.568h45.568zM41.552 334.576h53.248v-45.568h-53.248v45.568zM103.616 260.752v-45.568h-45.568v45.568h45.568zM63.168 146.608h-20.064v45.568h20.064v-45.568zM385.904 146.608h-301.104v45.568h301.104v-45.568zM398.88 215.2h-45.568v45.568h45.568v-45.568zM471.632 146.608h-56.992v45.568h56.992v-45.568zM472.704 215.2h-45.568v45.568h45.568v-45.568zM476.288 289.008h-55.024v45.568h55.024v-45.568z" />
<glyph unicode="&#xe631;" d="M117.296 284.496h21.872c0 26.448-21.424 47.872-47.872 47.872s-47.888-21.424-47.888-47.872h21.872c0 14.368 11.648 26.032 26.016 26.032s26.016-11.648 26.016-26.032zM229.104 310.528c14.368 0 26.016-11.648 26.016-26.032h21.872c0 26.448-21.424 47.872-47.872 47.872s-47.888-21.424-47.888-47.872h21.872c0 14.368 11.664 26.032 26.032 26.032zM160.192 170.8c-24.512 0-60.912 13.344-60.912 29.776h-20.736c0-30.24 36.56-54.768 81.648-54.768 45.104 0 81.648 24.512 81.648 54.768h-20.752c0-16.448-36.4-29.776-60.896-29.776zM442.336 253.872c19.552 0 35.408 15.84 35.408 35.408h-16.176c0-10.624-8.608-19.248-19.232-19.248s-19.264 8.624-19.264 19.248h-16.176c0-19.568 15.872-35.408 35.44-35.408zM330.96 163.488h15.328c0 12.16 26.928 22.048 45.040 22.048 18.176 0 45.088-9.888 45.088-22.048h15.344c0 22.368-27.024 40.496-60.368 40.496-33.408 0-60.432-18.128-60.432-40.496zM509.792 384.224h-16.048c-0.912-25.376-46.352-45.824-102.352-45.824-27.6 0-52.592 4.976-71.008 13.040v92.736h-21.808c-1.232-34.288-62.64-61.936-138.368-61.936-75.712 0-137.152 27.648-138.384 61.936h-21.824v-234.544c0-88.496 71.728-160.192 160.192-160.192 61.024 0 114.048 34.128 141.104 84.336 21.76-25.424 54-41.584 90.080-41.584 65.424 0 118.496 53.040 118.496 118.512v173.504h-0.080zM298.688 221.088c0-76.48-62-138.496-138.496-138.496-76.48 0-138.496 62.016-138.496 138.496v183.232c27.696-24.368 79.264-40.768 138.496-40.768s110.8 16.416 138.496 40.768v-183.232zM306.576 144.704c-1.264-2.896-2.656-5.696-4.096-8.496 1.44 2.8 2.816 5.616 4.096 8.496zM493.808 219.184c0-56.56-45.856-102.448-102.448-102.448-32.672 0-61.664 15.328-80.432 39.104 6.016 16.832 9.44 34.88 9.44 53.776v50.448c5.68-3.904 12.56-6.208 20-6.208 19.568 0 35.44 15.84 35.44 35.408h-16.176c0-10.624-8.64-19.248-19.264-19.248s-19.264 8.624-19.264 19.248h-0.72v47.44c19.76-7.6 44.288-12.144 70.992-12.144 43.792 0 81.952 12.144 102.448 30.144v-135.552z" />
<glyph unicode="&#xe632;" d="M438.32 222.208l-195.6 194.256h-178.256l-0.416-178.032 193.248-197.264c12.704-12.704 33.136-12.88 45.648-0.368l135.744 135.76c12.496 12.496 12.336 32.944-0.368 45.648zM111.712 335.936c0 17.664 14.336 32 32 32s32-14.336 32-32c0-17.68-14.336-32-32-32s-32 14.32-32 32zM285.808 112.768l-124.448 124.448 11.312 11.312 124.448-124.448-11.312-11.312zM319.744 146.704l-124.448 124.448 11.328 11.312 124.432-124.448-11.312-11.312zM353.68 180.656l-124.432 124.448 11.312 11.312 124.432-124.448-11.312-11.312z" />
<glyph unicode="&#xe633;" d="M417.36 479.936h-313.984c-18.336 0-33.2-14.864-33.2-33.2v-445.536c0-18.336 14.864-33.2 33.2-33.2h313.984c18.336 0 33.2 14.864 33.2 33.2v445.536c0 18.336-14.864 33.2-33.2 33.2zM259.84-17.712c-8.464 0-15.328 6.864-15.328 15.328s6.864 15.328 15.328 15.328c8.464 0 15.328-6.864 15.328-15.328s-6.864-15.328-15.328-15.328zM422.096 25.168h-321.52v425.936h321.52v-425.936z" />
<glyph unicode="&#xe634;" d="M368.016 416h-240c-17.68 0-32.016-14.336-32.016-32v-320c0-17.664 14.336-32 32.016-32h240c17.664 0 31.984 14.336 31.984 32v320c0 17.664-14.32 32-31.984 32zM248 48c-8.832 0-15.984 7.152-15.984 16s7.152 16 15.984 16c8.848 0 16.016-7.152 16.016-16s-7.168-16-16.016-16zM367.856 96.992h-240.416v286.592h240.416v-286.592z" />
<glyph unicode="&#xe635;" d="M248-16.992c-110.464 0-200 89.552-200 200 0 85.040 53.168 157.504 128 186.416v-71.184c-38.384-24.048-64-66.592-64-115.232 0-75.104 60.896-136 136-136s136 60.896 136 136c0 41.536-18.656 78.64-48 103.6v75.776c66.288-32.576 112-100.544 112-179.392 0-110.448-89.552-199.984-200-199.984zM256 207.008c-17.664 0-32 14.336-32 32v177.984c0 17.664 14.336 32 32 32s32-14.336 32-32v-178c0-17.664-14.336-31.984-32-31.984z" />
<glyph unicode="&#xe636;" d="M448 16h-384c-17.664 0-32 14.336-32 32v144h64v-48h64v48h192v-48h64v48h64v-144c0-17.664-14.336-32-32-32zM368 160v64h32v-64h-32zM112 160v64h32v-64h-32zM416 240h-64v-32h-192v32h-64v-32h-64v112c0 17.664 14.336 32 32 32h384c17.664 0 32-14.336 32-32v-112h-64v32zM304 400.336h-96v-32.336h-32v15.664h16v48.336h128.336v-48h15.664v-16h-32v32.336z" />
<glyph unicode="&#xe637;" d="M432 16h-368c-17.68 0-32 14.336-32 32v192c0 0 83.536-42.96 160-60.544v-19.456c0-8.848 7.152-16 16-16h80c8.832 0 16 7.152 16 16v19.456c76.448 17.584 160 60.544 160 60.544v-192c0-17.664-14.336-32-32-32zM272 208c8.832 0 16-7.152 16-16v-16c0-8.848-7.168-16-16-16h-48c-8.848 0-16 7.152-16 16v16c0 8.848 7.152 16 16 16h48zM304 208c0 8.848-7.168 16-16 16h-80c-8.848 0-16-7.152-16-16v-14.336c-76.464 18.112-160 62.336-160 62.336v64c0 17.664 14.32 32 32 32h96v32c0 17.664 14.336 32 32 32h112c17.664 0 32-14.336 32-32v-32h96c17.664 0 32-14.336 32-32v-64c0 0-83.552-44.224-160-62.336v14.336zM304 368c0 8.848-7.168 16-16 16h-80c-8.848 0-16-7.152-16-16 0-8.832 0-16 0-16h112c0 0 0 7.168 0 16z" />
<glyph unicode="&#xe638;" d="M432 16h-64v336h64c17.664 0 32-14.336 32-32v-272c0-17.664-14.336-32-32-32zM160 352v0 32c0 17.68 14.336 32 32 32h112c17.664 0 32-14.32 32-32v-368h-176v336zM192 352h112c0 0 0 7.168 0 16 0 8.848-7.168 16-16 16h-80c-8.848 0-16-7.152-16-16 0-8.832 0-16 0-16zM32 48v272c0 17.664 14.336 32 32 32h64v-336h-64c-17.664 0-32 14.336-32 32z" />
<glyph unicode="&#xe639;" d="M460.704 216.752l-76.56 77.472v-54.336h-111.648v176.112h-48v-176.112h-111.648v54.336l-77.552-77.472 77.168-77.808 0.384 53.632h111.648v-176.576h48v176.576h111.648l-0.624-53.632z" />
<glyph unicode="&#xe63a;" d="M336.496 160.304v64l47.008 47.008h-47.008v64.992l47.008 47.008h-47.008v26.992c0 0-53.072 22.4-89.616 22.4-35.456 0-86.384-22.4-86.384-22.4v-27.008h-48l48-48v-64.992l-48 0.992 48-48v-64h-48.992l48.992-48.992v-79.008h63.008l0.992-32 48 0.992v31.008h64v80.992l48 48h-48zM249.152 63.648c-26.496 0-48 21.488-48 48 0 26.496 21.504 47.984 48 47.984 26.512 0 48-21.488 48-47.984 0-26.528-21.488-48-48-48zM249.152 174.64c-26.496 0-48 21.488-48 48 0 26.496 21.504 48 48 48 26.512 0 48-21.504 48-48 0-26.512-21.488-48-48-48zM249.152 287.632c-26.496 0-48 21.504-48 48.016 0 26.496 21.504 48 48 48 26.512 0 48-21.504 48-48 0-26.528-21.488-48.016-48-48.016z" />
<glyph unicode="&#xe63b;" d="M371.2 377.6h-230.4c-25.44 0-38.4-7.84-38.4-33.28v-240.64c0-25.44 12.96-33.28 38.4-33.28h230.4c25.44 0 38.4 7.84 38.4 33.28v240.64c0 25.44-12.96 33.28-38.4 33.28z" />
<glyph unicode="&#xe63c;" d="M344.992 448h-184.816l-132.176-131.824v-184.336l132.176-131.84 184.816 1.168 131.008 130.672v184.336l-131.008 131.824zM460 138.416l-121.664-121.328-171.6-1.088-122.736 122.416v171.184l122.736 122.4h171.616l121.664-122.4v-171.184zM387.056 224.368c3.072 0.816 5.648 2.256 7.68 4.32 1.824 1.856 3.168 3.872 4 6.064 0.848 2.208 1.264 4.752 1.264 7.68 0 3.184-0.544 5.952-1.664 8.32-1.104 2.336-2.784 4.272-5.024 5.76-1.968 1.28-4.24 2.192-6.848 2.72s-5.84 0.816-9.712 0.816h-10.256v-36.88h8.432c5.008 0 9.056 0.4 12.128 1.2zM320.048 252.4c-2.448 3.216-5.424 5.632-8.912 7.232s-7.392 2.4-11.728 2.4c-4.496 0-8.432-0.784-11.792-2.336-3.36-1.584-6.336-4-8.928-7.296-2.448-3.168-4.336-7.152-5.664-11.936-1.312-4.8-1.968-10.224-1.968-16.272 0-12.224 2.56-21.584 7.68-28.064 5.136-6.48 12.016-9.712 20.656-9.712 8.624 0 15.504 3.232 20.608 9.712s7.664 15.84 7.664 28.064c0 6.176-0.672 11.632-2 16.384-1.328 4.768-3.2 8.704-5.616 11.824zM170.016 424l-118.016-117.696v-164.576l118.016-117.712 165.008 1.040 116.976 116.672v164.576l-116.976 117.696h-165.008zM168.032 193.36c-1.488-3.536-3.568-6.528-6.224-8.992-3.008-2.704-6.4-4.8-10.176-6.256-3.776-1.472-8.496-2.192-14.176-2.192-6.768 0-12.496 0.704-17.232 2.096s-9.184 3.104-13.344 5.152v15.504h0.88c4.096-3.808 8.72-6.768 13.888-8.864s10.16-3.136 14.96-3.136c6.848 0 12.016 1.424 15.52 4.272 3.52 2.864 5.264 6.608 5.264 11.28 0 3.68-0.928 6.72-2.768 9.040s-4.768 4.048-8.784 5.168c-2.896 0.848-5.52 1.536-7.888 2.064-2.384 0.544-5.376 1.28-8.96 2.208-3.216 0.832-6.112 1.888-8.64 3.184-2.544 1.28-4.816 2.976-6.768 5.056-1.92 2.048-3.424 4.448-4.48 7.216-1.056 2.784-1.6 5.968-1.6 9.616 0 7.552 2.944 13.856 8.832 18.976s13.408 7.664 22.544 7.664c5.216 0 10.16-0.528 14.816-1.568s8.976-2.512 12.944-4.416v-14.768h-0.944c-2.976 2.672-6.768 4.992-11.408 7.008s-9.52 3.008-14.608 3.008c-5.76 0-10.416-1.344-13.968-4.032s-5.328-6.208-5.328-10.576c0-3.952 1.040-7.088 3.136-9.424 2.096-2.336 5.12-4.048 9.088-5.12 2.624-0.704 5.84-1.52 9.648-2.4s6.96-1.712 9.472-2.464c6.416-1.968 11.12-4.928 14.080-8.896 2.976-3.952 4.448-8.832 4.448-14.624 0-3.648-0.736-7.232-2.224-10.784zM254.192 257.792h-30.256v-80.128h-15.376v80.128h-29.248v14h74.88v-14zM354.128 270.8h23.376c5.504 0 10.192-0.464 14.064-1.376 3.872-0.928 7.296-2.4 10.256-4.432 3.456-2.368 6.176-5.392 8.128-9.024 1.952-3.664 2.944-8.064 2.944-13.216 0-4.048-0.72-7.872-2.16-11.472-1.44-3.616-3.424-6.688-5.968-9.216-3.2-3.168-6.992-5.568-11.312-7.184-4.336-1.632-9.808-2.432-16.432-2.432h-10.496v-34.752h-12.368v93.104zM340.56 224.208c0-7.568-0.96-14.384-2.88-20.48s-4.688-11.2-8.336-15.344c-3.792-4.336-8.224-7.552-13.28-9.616-5.072-2.064-10.64-3.088-16.736-3.088-6.304 0-11.968 1.056-17.008 3.184s-9.376 5.296-13.008 9.52c-3.584 4.144-6.336 9.232-8.256 15.28-1.92 6.064-2.88 12.912-2.88 20.544 0 7.84 0.976 14.736 2.912 20.656 1.936 5.936 4.704 11.024 8.288 15.28 3.6 4.144 7.92 7.28 12.992 9.424 5.056 2.16 10.736 3.232 16.992 3.232 6.336 0 12.048-1.104 17.136-3.328 5.072-2.208 9.376-5.312 12.88-9.328 3.552-4.096 6.304-9.152 8.272-15.216 1.936-6.048 2.912-12.96 2.912-20.72z" />
<glyph unicode="&#xe63d;" d="M111.792 400h-15.792v-368h320v15.408l-303.936 0.8-0.272 351.792zM224 259.008l-80 80v-259.008h80v179.008zM240 270v-190h80v206l-32 32-48-48zM336 224v-144h80v144h-80zM289.904 362.064l83.872-84.144-23.472-22.24 65.648-0.704-0.304 63.376-28.336-27.504-97.376 98.8-59.92-60.592-69.072 69.024-14.032-14.576 81.968-82.688 61.024 61.248z" />
<glyph unicode="&#xe63e;" d="M95.968 400h-15.792v-368h320v15.408l-303.936 0.784-0.272 351.808zM128.176 80h80v174l-80-80v-94zM224.176 80h80v158l-32-32-48 48v-174zM320.176 80h80v242.992l-80-80v-162.992zM214.192 302.928l57.92-57.6 114.368 113.792 29.344-29.504-0.704 70.384-70.64-0.368 27.472-27.552-99.872-100.16-59.024 59.248-89.968-89.664 15.024-14.592 76.080 76.016z" />
<glyph unicode="&#xe63f;" d="M199.728 284.624c0 0-67.408-7.472-112.384-12.464-4.048-0.496-7.632-3.2-8.976-7.312s0-8.4 2.992-11.12c33.408-30.48 83.6-76.144 83.6-76.144-0.048 0-13.776-66.416-22.912-110.72-0.768-4.016 0.688-8.256 4.176-10.8 3.472-2.544 7.952-2.576 11.472-0.592 39.344 22.352 98.256 55.984 98.256 55.984s58.944-33.616 98.224-56c3.584-1.968 8.064-1.92 11.536 0.624 3.504 2.544 4.944 6.784 4.16 10.768-9.136 44.336-22.848 110.736-22.848 110.736s50.192 45.648 83.6 76.080c2.992 2.8 4.304 7.088 2.992 11.184s-4.912 6.8-8.96 7.28c-44.976 5.040-112.4 12.496-112.4 12.496s-27.952 61.824-46.576 103.040c-1.744 3.696-5.424 6.272-9.728 6.272s-8-2.608-9.664-6.272c-18.64-41.216-46.576-103.040-46.576-103.040z" />
<glyph unicode="&#xe640;" d="M457.728 300.064l-201.728 138.112-201.728-138.112 201.728-138.096 201.728 138.096zM256 131.152l-178.064 117.408-23.664-24.56 201.728-138.096 201.728 138.096-23.984 25.088-177.744-117.936zM256 55.056l-178.064 117.408-23.664-24.56 201.728-138.096 201.728 138.096-23.984 25.088-177.744-117.936z" />
<glyph unicode="&#xe641;" d="M448 96v-64h-64v16h-96v-16h-64v16h-96v-16h-64v64h16v96h-16v64h16v96h-16v64h64v-16h96v16h64v-16h96v16h64v-64h-16v-96h16v-64h-16v-96h16zM240 48h32v32h-32v-32zM80 48h32v32h-32v-32zM80 208h32v32h-32v-32zM112 400h-32v-32h32v32zM272 400h-32v-32h32v32zM384 368h-96v-16h-64v16h-96v-16h-16v-96h16v-64h-16v-96h16v-16h96v16h64v-16h96v16h16v96h-16v64h16v96h-16v16zM432 400h-32v-32h32v32zM432 240h-32v-32h32v32zM400 80v-32h32v32h-32z" />
<glyph unicode="&#xe642;" d="M448 96v-64h-64v16h-256v-16h-64v64h16v256h-16v64h64v-16h256v16h64v-64h-16v-256h16zM80 48h32v32h-32v-32zM112 400h-32v-32h32v32zM384 368h-256v-16h-16v-256h16v-16h256v16h16v256h-16v16zM432 400h-32v-32h32v32zM400 80v-32h32v32h-32z" />
<glyph unicode="&#xe643;" d="M480 192v-48q0-6.496-4.752-11.248t-11.248-4.752-11.248 4.752-4.752 11.248v-32q0-6.496-4.752-11.248t-11.248-4.752-11.248 4.752-4.752 11.248v64q0-6.496-4.752-11.248t-11.248-4.752-11.248 4.752-4.752 11.248v-128q0-6.496-4.752-11.248t-11.248-4.752-11.248 4.752-4.752 11.248v-32q0-6.496-4.752-11.248t-11.248-4.752-11.248 4.752-4.752 11.248v160q0-6.496-4.752-11.248t-11.248-4.752-11.248 4.752-4.752 11.248v-64q0-6.496-4.752-11.248t-11.248-4.752-11.248 4.752-4.752 11.248v-32q0-6.496-4.752-11.248t-11.248-4.752-11.248 4.752-4.752 11.248v-96q0-6.496-4.752-11.248t-11.248-4.752-11.248 4.752-4.752 11.248v64q0-6.496-4.752-11.248t-11.248-4.752-11.248 4.752-4.752 11.248v96q0-6.496-4.752-11.248t-11.248-4.752-11.248 4.752-4.752 11.248v-32q0-6.496-4.752-11.248t-11.248-4.752-11.248 4.752-4.752 11.248v32q0-6.496-4.752-11.248t-11.248-4.752-11.248 4.752-4.752 11.248v32q0-6.496-4.752-11.248t-11.248-4.752-11.248 4.752-4.752 11.248v16q-13.504 0-22.752 9.504t-9.248 22.752 9.248 22.496 22.752 9.248v16q0 6.496 4.752 11.248t11.248 4.752 11.248-4.752 4.752-11.248v32q0 6.496 4.752 11.248t11.248 4.752 11.248-4.752 4.752-11.248v32q0 6.496 4.752 11.248t11.248 4.752 11.248-4.752 4.752-11.248v-32q0 6.496 4.752 11.248t11.248 4.752 11.248-4.752 4.752-11.248v96q0 6.496 4.752 11.248t11.248 4.752 11.248-4.752 4.752-11.248v64q0 6.496 4.752 11.248t11.248 4.752 11.248-4.752 4.752-11.248v-96q0 6.496 4.752 11.248t11.248 4.752 11.248-4.752 4.752-11.248v-32q0 6.496 4.752 11.248t11.248 4.752 11.248-4.752 4.752-11.248v-64q0 6.496 4.752 11.248t11.248 4.752 11.248-4.752 4.752-11.248v160q0 6.496 4.752 11.248t11.248 4.752 11.248-4.752 4.752-11.248v-32q0 6.496 4.752 11.248t11.248 4.752 11.248-4.752 4.752-11.248v-128q0 6.496 4.752 11.248t11.248 4.752 11.248-4.752 4.752-11.248v64q0 6.496 4.752 11.248t11.248 4.752 11.248-4.752 4.752-11.248v-32q0 6.496 4.752 11.248t11.248 4.752 11.248-4.752 4.752-11.248v-48q13.504 0 22.752-9.248t9.248-22.496-9.248-22.752-22.752-9.504z" />
<glyph unicode="&#xe644;" d="M256 469.76c-135.728 0-245.76-110.032-245.76-245.76s110.032-245.76 245.76-245.76 245.76 110.032 245.76 245.76c0 135.728-110.032 245.76-245.76 245.76zM102.032 180.56h-10.688l-5.344 21.376 5.344 21.376h10.688l5.344-21.376-5.344-21.376zM144.784 159.184h-10.688l-5.344 42.752 5.344 42.752h10.688l5.344-42.752-5.344-42.752zM187.536 159.184h-10.688l-5.344 54.352 5.344 52.512h10.688l5.344-53.44-5.344-53.44zM230.288 159.184h-10.688l-5.344 74.88 5.344 74.736h10.688l5.344-74.736-5.344-74.88zM383.92 159.184c-0.784 0-122.096 0.064-122.208 0.064-2.64 0.256-4.72 2.416-4.72 5.008v134.496c0 2.464 0.88 3.744 4.192 4.976 8.56 3.184 18.208 5.072 28.16 5.072 40.656 0 73.968-29.952 77.488-68.16 5.248 2.112 11.008 3.296 17.056 3.296 24.352 0 44.096-18.976 44.096-42.384 0-23.408-19.728-42.384-44.080-42.384z" />
<glyph unicode="&#xe645;" d="M256 381.248c-85.776 0-155.312-69.536-155.312-155.312s69.536-155.312 155.312-155.312c85.776 0 155.312 69.536 155.312 155.312s-69.536 155.312-155.312 155.312zM256 102.64c-68.096 0-123.312 55.2-123.312 123.312 0 68.096 55.2 123.312 123.312 123.312 68.096 0 123.312-55.2 123.312-123.312 0-68.096-55.2-123.312-123.312-123.312zM256 407.040c7.312 0 13.232 5.92 13.232 13.232v44.368c0 7.312-5.92 13.232-13.232 13.232s-13.232-5.92-13.232-13.232v-44.368c0-7.312 5.92-13.232 13.232-13.232zM256 40.96c-7.312 0-13.232-5.92-13.232-13.232v-44.368c0-7.312 5.92-13.232 13.232-13.232s13.232 5.92 13.232 13.232v44.368c0 7.296-5.92 13.232-13.232 13.232zM496.64 237.232h-44.368c-7.312 0-13.232-5.92-13.232-13.232s5.92-13.232 13.232-13.232h44.368c7.312 0 13.232 5.92 13.232 13.232s-5.92 13.232-13.232 13.232zM59.728 237.232h-44.368c-7.312 0-13.232-5.92-13.232-13.232s5.92-13.232 13.232-13.232h44.368c7.312 0 13.232 5.92 13.232 13.232 0 7.312-5.92 13.232-13.232 13.232zM404.144 353.424l31.376 31.376c5.168 5.168 5.168 13.536 0 18.704s-13.536 5.168-18.704 0l-31.376-31.376c-5.168-5.168-5.168-13.536 0-18.704s13.552-5.168 18.704 0zM107.872 94.576l-31.376-31.376c-5.168-5.168-5.168-13.536 0-18.704s13.536-5.168 18.704 0l31.376 31.376c5.168 5.168 5.168 13.536 0 18.704s-13.536 5.168-18.704 0zM404.144 94.576c-5.168 5.168-13.536 5.168-18.704 0s-5.168-13.536 0-18.704l31.376-31.376c5.168-5.168 13.536-5.168 18.704 0s5.168 13.536 0 18.704l-31.376 31.376zM107.872 353.424c5.168-5.168 13.536-5.168 18.704 0 5.168 5.168 5.168 13.536 0 18.704l-31.376 31.376c-5.168 5.168-13.552 5.168-18.704 0-5.168-5.168-5.168-13.536 0-18.704l31.376-31.376z" />
<glyph unicode="&#xe646;" d="M460.624 317.552c-0.096 0.24-0.224 0.48-0.336 0.736l0.464-0.080-0.128-0.656zM404 124.528l-74.688-3.104-39.008 68.56 40.368 72.896 78.192-2.592 33.376-68.144-38.24-67.616zM203.328 190.96l-39.184 70.896 40.96 68.336 83.536 1.28 41.024-68.048-40.32-72.752-86.016 0.288zM205.056 331.36l-30.88 53.168 41.024 50.048 71.6 2.288 38.16-47.264-36.528-56.96-83.376-1.28zM165.984 124.016l-66.16 6.464-31.872 63.728 27.808 64.608 67.28 2.576 39.2-70.928-36.256-66.448zM396.976 381.456l6.336 12.592c24-20.816 43.472-46.592 56.976-75.76l-23.712 3.776-39.6 59.392zM326.16 390l-38.224 47.312c0.944 1.152 6.032 7.344 6.128 7.44-34.256 5.728-65.504 2.8-86.096-2.032 0.144-0.096 5.104-6.368 6.128-7.664l-41.040-50.048-61.2-10.304-5.456 16.688-0.944-0.288c39.904 35.968 92.576 58.064 150.544 58.064 55.968 0 107.024-20.528 146.4-54.32l-6.464-12.864-69.776 8.016zM74.224 316.448l-25.728-6.064 0.288-1.12 25.28 5.952 20.8-55.552-27.904-64.848c-3.776 0.368-32.976 3.168-32.976 1.392 5.12-42.96 21.424-80.336 49.504-115.296l16.48 48.368 66.048-6.448 41.712-63.296-28.8-46.896c-86.32 31.536-148.096 114.128-148.096 211.36 0 66.336 28.848 125.76 74.48 166.976l5.536-16.992-36.624-57.536zM285.744 57.040l34.336-48.080 0.976 0.688-34.128 47.728 42.4 62.88 74.624 3.088c1.504-3.376 20.624-46.368 20.496-46.368 31.472 36.848 47.28 73.776 52.992 115.872-0.064 0-30.624-0.128-34.224-0.16l-33.408 68.288 26.944 59.856 23.776-3.792 0.064 0.496c13.056-28.512 20.528-60.128 20.528-93.552 0-124.352-100.816-225.168-225.152-225.168-26.704 0-52.192 4.896-75.952 13.424l28.752 46.8 76.976-2zM179.744 11.728l-0.992 0.608 0.192 0.32c0.368-0.144 0.752-0.272 1.12-0.4l-0.32-0.528zM105.296 391.040l0.176 0.064c-0.064-0.048-0.112-0.096-0.144-0.128l-0.032 0.064zM402.624 395.28l1.024-0.512-0.336-0.72c-0.32 0.272-0.592 0.544-0.912 0.816l0.224 0.416z" />
<glyph unicode="&#xe647;" d="M442.704 441.040h-172.512v22.208c0 8.544-6.928 15.472-15.472 15.472s-15.472-6.928-15.472-15.472v-22.208h-172.512c-8.576 0-15.536-6.96-15.536-15.536s6.96-15.536 15.536-15.536h375.968c8.576 0 15.536 6.96 15.536 15.536s-6.96 15.536-15.536 15.536zM66.672 149.056h148.048l-65.296-145.328h32.96l21.36 47.088h42.56v-82.752h16.816v82.752h44.528l21.36-47.088h32.96l-65.296 145.328h145.408v242.88h-375.424v-242.88zM310.864 345.504h84.128v-18.16h-84.128v18.16zM310.864 313.216h84.128v-18.16h-84.128v18.16zM310.864 280.912h84.128v-18.16h-84.128v18.16zM310.864 245.936h84.128v-18.16h-84.128v18.16zM310.864 213.632h84.128v-18.16h-84.128v18.16zM279.28 345.504h18.16v-18.16h-18.16v18.16zM279.28 313.216h18.16v-18.16h-18.16v18.16zM279.28 280.912h18.16v-18.16h-18.16v18.16zM279.28 245.936h18.16v-18.16h-18.16v18.16zM279.28 213.632h18.16v-18.16h-18.16v18.16zM263.136 149.040l37.2-82.064h-37.2v82.064zM246.304 66.976h-35.248l35.248 77.728v-77.728zM181.392 345.504v-66.272h66.272c0-36.608-29.664-66.272-66.272-66.272s-66.272 29.664-66.272 66.272c0 36.608 29.664 66.272 66.272 66.272z" />
<glyph unicode="&#xe648;" d="M384 48h-48c-8.848 0-16 7.152-16 16v32c0 8.848 7.152 16 16 16h32v96h-112v-96h16c8.832 0 16-7.152 16-16v-32c0-8.848-7.168-16-16-16h-48c-8.848 0-16 7.152-16 16v32c0 8.848 7.152 16 16 16h16v96h-112v-96h32c8.832 0 16-7.152 16-16v-32c0-8.848-7.168-16-16-16h-48c-8.848 0-16 7.152-16 16v32c0 8.848 7.152 16 16 16v112h128v112h-16c-8.848 0-16 7.168-16 16v32c0 8.832 7.152 16 16 16h48c8.832 0 16-7.168 16-16v-32c0-8.832-7.168-16-16-16h-16v-112h128v-112c8.832 0 16-7.152 16-16v-32c0-8.848-7.168-16-16-16z" />
<glyph unicode="&#xe649;" d="M383.552 48.56h-47.84c-8.8 0-15.952 7.12-15.952 15.936v31.904c0 8.784 7.152 15.936 15.952 15.936h31.888v79.744h-111.632v-79.744h15.936c8.816 0 15.952-7.152 15.952-15.936v-31.904c0-8.816-7.136-15.936-15.952-15.936h-47.84c-8.8 0-15.936 7.12-15.936 15.936v31.904c0 8.784 7.136 15.936 15.936 15.936h15.968v79.744h-111.648v-79.744h31.888c8.816 0 15.952-7.152 15.952-15.936v-31.904c0-8.816-7.136-15.936-15.952-15.936h-47.824c-8.816 0-15.952 7.12-15.952 15.936v31.904c0 8.784 7.136 15.936 15.952 15.936v95.68h127.584v63.792h-47.84c-8.816 0-15.952 7.136-15.952 15.952v79.744c0 8.8 7.136 15.952 15.952 15.952h111.632c8.816 0 15.936-7.136 15.936-15.952v-79.728c0-8.8-7.12-15.952-15.936-15.952h-47.84v-63.792h127.584v-95.68c8.8 0 15.952-7.152 15.952-15.936v-31.904c-0.016-8.832-7.184-15.952-15.968-15.952zM112.448 96.4v-31.904h47.824v31.904h-47.824zM303.808 287.76v79.744h-111.632v-79.728h111.632zM224.064 96.4v-31.904h47.84v31.904h-47.84zM383.552 96.4h-47.84v-31.904h47.84v31.904z" />
<glyph unicode="&#xe64a;" d="M367.504 288v-47.008l112.992 72.992-112 70-0.992-48h-94l-115.008-174.992h-126v-48.992h150l112 176h73.008zM192.496 236.992l24.992 44-34.992 55.008h-150l-0.992-48h127.008l33.984-51.008zM367.504 160h-72.992l-32 51.008-26.016-43.008 36.992-56h94l0.992-48 112 70-112.992 72.992v-46.992z" />
<glyph unicode="&#xe64b;" d="M213.296 298.704c43.504 0 78.976-32.656 84.272-74.704h75.008c-0.704 10.064-2.064 19.952-4.528 29.424l60.608 34.992-42.688 73.936-60.528-34.944c-19.088 18.8-42.88 32.688-69.44 40.048v69.936h-85.376v-69.936c-26.56-7.344-50.368-21.248-69.456-40.016l-60.496 34.928-42.688-73.936 60.56-34.96c-3.312-12.848-5.264-26.192-5.264-40.064s1.936-27.248 5.264-40.064l-60.56-34.992 42.688-73.92 60.48 34.928c19.088-18.8 42.928-32.688 69.488-40.016v-69.936h85.376v150.512c-12.608-7.344-27.072-11.856-42.704-11.856-47.12 0-85.328 38.208-85.328 85.328s38.208 85.36 85.328 85.36zM490.624 96c0 7.888-1.408 15.408-3.44 22.656l39.616 22.864-21.312 36.912-39.344-22.704c-10.688 10.88-24.32 18.672-39.536 22.64v45.632h-42.624v-45.632c-15.248-3.92-28.88-11.712-39.6-22.608l-39.28 22.672-21.312-36.912 39.536-22.8c-2.032-7.296-3.456-14.8-3.456-22.72s1.424-15.44 3.456-22.72l-39.536-22.8 21.312-36.912 39.28 22.672c10.704-10.896 24.368-18.688 39.6-22.608v-45.632h42.624v45.648c15.216 3.968 28.848 11.76 39.536 22.64l39.36-22.72 21.312 36.912-39.616 22.864c2 7.248 3.408 14.768 3.408 22.656zM405.248 53.376c-23.552 0-42.624 19.088-42.624 42.624s19.088 42.624 42.624 42.624 42.624-19.088 42.624-42.624-19.072-42.624-42.624-42.624z" />
<glyph unicode="&#xe64c;" d="M512 224c0 141.392-114.608 256-256 256s-256-114.608-256-256c0-141.392 114.608-256 256-256s256 114.608 256 256zM244.544 231.152l-98.016-97.968c-2.864-2.976-6.88-4.864-11.36-4.864-4.512 0-8.56 1.92-11.44 4.96h-0.144l-29.552 29.552c-6.336 6.336-6.336 16.576 0 22.912l150.512 150.512c6.32 6.32 16.576 6.32 22.912 0l150.512-150.512c6.336-6.336 6.336-16.576 0-22.912l-29.808-29.808h-0.080c-2.864-2.896-6.832-4.704-11.232-4.704-4.368 0-8.32 1.792-11.184 4.656h-0.048l-98.16 98.176c-6.336 6.32-16.576 6.32-22.912 0z" />
<glyph unicode="&#xe64d;" d="M504.864 150.912l-231.184 231.2c-9.728 9.712-25.472 9.712-35.2 0l-231.184-231.2c-9.712-9.712-9.712-25.472 0-35.184l45.392-45.392h0.224c4.416-4.656 10.624-7.616 17.568-7.616 6.864 0 13.040 2.88 17.44 7.456h0.080l150.464 150.48c9.728 9.712 25.472 9.712 35.2 0l150.848-150.784c4.4-4.416 10.464-7.152 17.184-7.152 6.752 0 12.848 2.768 17.248 7.232h0.128l45.776 45.776c9.728 9.728 9.728 25.472 0 35.184z" />
<glyph unicode="&#xe64e;" d="M0.432 127.152l255.792 255.792 255.792-255.792z" />
<glyph unicode="&#xe64f;" d="M144.064-32l256 256-256 256z" />
<glyph unicode="&#xe650;" d="M256-32c141.392 0 256 114.608 256 256s-114.608 256-256 256c-141.392 0-256-114.608-256-256s114.608-256 256-256zM263.152 235.456l-97.968 98.016c-2.976 2.864-4.864 6.88-4.864 11.36 0 4.512 1.92 8.56 4.96 11.44v0.144l29.552 29.552c6.336 6.336 16.576 6.336 22.912 0l150.512-150.512c6.32-6.32 6.32-16.576 0-22.912l-150.512-150.512c-6.336-6.336-16.576-6.336-22.912 0l-29.808 29.808v0.080c-2.896 2.864-4.704 6.832-4.704 11.232 0 4.368 1.792 8.32 4.656 11.184v0.048l98.16 98.16c6.32 6.336 6.32 16.576 0 22.912z" />
<glyph unicode="&#xe651;" d="M180.928 472.72l231.2-231.184c9.712-9.728 9.712-25.472 0-35.2l-231.2-231.184c-9.712-9.728-25.472-9.728-35.184 0l-45.392 45.392v0.224c-4.656 4.416-7.616 10.64-7.616 17.568 0 6.864 2.88 13.040 7.456 17.44v0.080l150.48 150.464c9.712 9.728 9.712 25.472 0 35.2l-150.784 150.848c-4.416 4.4-7.152 10.464-7.152 17.184 0 6.752 2.768 12.848 7.232 17.248v0.128l45.776 45.792c9.728 9.712 25.472 9.712 35.184 0z" />
<glyph unicode="&#xe652;" d="M504.864 150.912l-231.184 231.2c-9.728 9.712-25.472 9.712-35.2 0l-231.184-231.2c-9.712-9.712-9.712-25.472 0-35.184l45.392-45.392h0.224c4.416-4.656 10.624-7.616 17.568-7.616 6.864 0 13.040 2.88 17.44 7.456h0.080l150.464 150.48c9.728 9.712 25.472 9.712 35.2 0l150.848-150.784c4.4-4.416 10.464-7.152 17.184-7.152 6.752 0 12.848 2.768 17.248 7.232h0.128l45.776 45.776c9.728 9.728 9.728 25.472 0 35.184z" />
<glyph unicode="&#xe653;" d="M511.488 252.144l-189.824 148.496v-90.544c-283.216 10.624-321.664-204.032-321.664-204.032 162.176 153.792 294.128 122.256 321.664 113.264v-90.896l189.824 123.712z" />
<glyph unicode="&#xe654;" d="M256 480c-141.376 0-256-114.608-256-256s114.608-256 256-256 256 114.608 256 256c0 141.392-114.624 256-256 256zM248.848 212.544l97.968-98.016c2.976-2.864 4.864-6.88 4.864-11.36 0-4.512-1.92-8.56-4.96-11.44v-0.144l-29.552-29.552c-6.336-6.336-16.576-6.336-22.912 0l-150.512 150.512c-6.32 6.32-6.32 16.576 0 22.912l150.512 150.512c6.336 6.32 16.576 6.32 22.912 0l29.808-29.808v-0.080c2.896-2.864 4.704-6.832 4.704-11.232 0-4.368-1.792-8.32-4.656-11.184v-0.048l-98.16-98.16c-6.32-6.336-6.32-16.592 0-22.912z" />
<glyph unicode="&#xe655;" d="M320.976 472.72l-231.2-231.184c-9.712-9.728-9.712-25.472 0-35.2l231.2-231.184c9.712-9.728 25.472-9.728 35.184 0l45.392 45.392v0.224c4.656 4.416 7.616 10.64 7.616 17.568 0 6.864-2.88 13.040-7.456 17.44v0.080l-150.48 150.464c-9.712 9.728-9.712 25.472 0 35.2l150.784 150.848c4.416 4.4 7.152 10.464 7.152 17.184 0 6.752-2.768 12.848-7.232 17.248v0.128l-45.776 45.792c-9.728 9.712-25.472 9.712-35.184 0z" />
<glyph unicode="&#xe656;" d="M182.832-31.792l255.792 255.792-255.792 255.792z" />
<glyph unicode="&#xe657;" d="M0 224c0-141.392 114.608-256 256-256s256 114.608 256 256c0 141.392-114.608 256-256 256s-256-114.608-256-256zM267.456 216.848l98.016 97.968c2.864 2.976 6.88 4.864 11.36 4.864 4.512 0 8.56-1.92 11.44-4.96h0.144l29.552-29.552c6.336-6.336 6.336-16.576 0-22.912l-150.512-150.512c-6.32-6.32-16.576-6.32-22.912 0l-150.512 150.512c-6.336 6.336-6.336 16.576 0 22.912l29.808 29.808h0.080c2.864 2.896 6.832 4.704 11.232 4.704 4.368 0 8.32-1.792 11.184-4.656h0.048l98.16-98.176c6.336-6.32 16.576-6.32 22.912 0z" />
<glyph unicode="&#xe658;" d="M504.864 288.4l-231.184-231.2c-9.728-9.712-25.472-9.712-35.2 0l-231.184 231.2c-9.712 9.712-9.712 25.472 0 35.184l45.392 45.392h0.224c4.416 4.656 10.624 7.616 17.568 7.616 6.864 0 13.040-2.88 17.44-7.456h0.080l150.464-150.48c9.728-9.712 25.472-9.712 35.2 0l150.848 150.784c4.4 4.416 10.464 7.152 17.184 7.152 6.752 0 12.848-2.768 17.248-7.232h0.128l45.776-45.776c9.712-9.728 9.712-25.472 0-35.184z" />
<glyph unicode="&#xe659;" d="M0.432 331.728l255.792-255.792 255.792 255.792z" />
<glyph unicode="&#xe65a;" d="M419.664 250.096h-1.504v83.872c0 80.288-65.104 145.392-145.392 145.392-79.632 0-144.272-64.032-145.344-143.424-0.016-0.16-0.048-25.296-0.048-25.296 0-3.296 2.752-5.968 6.128-5.968h51.568c3.392 0 6.128 2.672 6.128 5.968l0.24 23.328c0 44.912 36.416 81.312 81.312 81.312 44.912 0 81.328-36.4 81.328-81.312v-83.872h-230.080c-9.472 0-17.136-7.68-17.136-17.136v-247.184c0-9.472 7.68-17.136 17.136-17.136h295.648c9.456 0 17.136 7.68 17.136 17.136v247.184c0 9.456-7.68 17.136-17.136 17.136zM294.832 32c0-14.848-12.032-26.88-26.88-26.88s-26.88 12.032-26.88 26.88v73.392c0 14.848 12.032 26.88 26.88 26.88s26.88-12.032 26.88-26.88v-73.392zM267.952 149.328c-14.848 0-26.88 12.032-26.88 26.88s12.032 26.88 26.88 26.88 26.88-12.032 26.88-26.88-12.032-26.88-26.88-26.88z" />
<glyph unicode="&#xe65b;" d="M188.224 134.256v0l-3.232 4.944c-0.080 0.032-0.144 0.064-0.224 0.096-3.92 5.232-8.944 9.792-14.96 13.264-6.112 3.52-12.656 5.584-19.248 6.32-0.048 0.048-0.112 0.080-0.16 0.112l-9.456 0.56c-4.448 0.032-8.944 1.152-13.072 3.536-1.632 0.928-3.104 2.032-4.464 3.232l-77.328-151.728 63.36 7.76 33.856-51.856 71.408 147.856c-0.704-0.064-1.392-0.096-2.112-0.096-10.896 0-20.272 6.576-24.352 15.984zM386.544 161.68c-4.128-1.696-8.64-2.352-13.136-1.856v0l-6.128-0.352 0.368 0.624c-0.464-0.352-0.928-0.672-1.392-1.008-6.192-0.864-12.32-2.896-18.048-6.24-5.76-3.344-10.592-7.68-14.416-12.656-0.608-0.272-1.216-0.544-1.824-0.816h0.624l-3.36-5.136c-4.080-9.408-13.44-15.984-24.352-15.984-4.192 0-8.144 0.976-11.664 2.704l88.592-152.656 22.352 55.28 60.24-8.080-77.84 146.144zM431.536 276.176l-1.984 3.968c-0.72 1.28-1.376 2.608-1.984 3.968l-0.448 0.88c0 0.032 0 0.064 0.016 0.096-2.4 5.728-3.728 12.032-3.728 18.64 0 6.704 1.36 13.072 3.824 18.88-0.016 0.080-0.016 0.16-0.016 0.24l4.32 8.64v0.016c2.144 3.76 3.36 8.112 3.36 12.752 0 10.624-6.4 19.744-15.568 23.728v0l-4.768 3.12c-0.096 0.24-0.208 0.48-0.32 0.72-5.168 3.808-9.648 8.704-13.072 14.592-3.472 5.984-5.504 12.4-6.24 18.864-0.080 0.112-0.16 0.224-0.24 0.32l-0.32 5.424c1.12 9.92-3.584 20.032-12.8 25.328-4.016 2.32-8.4 3.424-12.736 3.44v0l-4.432 0.256c-8 0.096-16.080 2.176-23.504 6.448-6.208 3.568-11.312 8.32-15.216 13.792-0.096 0.048-0.192 0.096-0.304 0.128l-2.624 4.016c-3.984 9.152-13.104 15.568-23.712 15.568-4.64 0-8.992-1.232-12.752-3.376h-0.016l-3.968-1.984c-6.976-3.904-15.008-6.144-23.568-6.144-7.312 0-14.24 1.632-20.464 4.544-0.032 0-0.064 0-0.112 0l-7.2 3.584c-3.76 2.144-8.112 3.376-12.752 3.376-10.624 0-19.744-6.4-23.728-15.568v0l-2.304-3.52c-0.24-0.096-0.48-0.208-0.72-0.32-3.936-5.744-9.168-10.72-15.584-14.448-6.4-3.712-13.296-5.792-20.208-6.368 0 0-0.016 0-0.016-0.016l-4.192-0.24c-0.624 0.064-1.232 0.112-1.856 0.144 0 0-0.016 0-0.016 0-9.296 0.368-18.496-4.304-23.456-12.928-2.32-4.016-3.424-8.4-3.44-12.736v-0.016l-0.464-7.808c-0.016-0.032-0.032-0.048-0.048-0.064-0.56-6.912-2.608-13.808-6.288-20.224-3.68-6.384-8.592-11.6-14.256-15.552-0.016-0.032-0.032-0.064-0.048-0.096l-3.536-2.304c-9.152-3.984-15.568-13.104-15.568-23.728 0-4.64 1.232-8.992 3.376-12.752v-0.016l3.632-7.248c0-0.032 0-0.064-0.016-0.112 2.896-6.192 4.512-13.104 4.512-20.4 0-8.56-2.24-16.592-6.144-23.568l-1.984-3.968v-0.016c-2.144-3.76-3.376-8.112-3.376-12.752 0-10.624 6.4-19.744 15.568-23.728v0l4.144-2.704c0.128-0.288 0.272-0.576 0.4-0.88 5.44-3.872 10.176-8.928 13.744-15.088 3.504-6.032 5.536-12.496 6.24-19.024 0.032-0.048 0.064-0.080 0.096-0.128l0.304-5.232c-1.12-9.92 3.584-20.016 12.784-25.328 4.016-2.32 8.416-3.424 12.736-3.44l0.016-0.016 9.2-0.544c0.048-0.032 0.112-0.080 0.16-0.112 6.416-0.72 12.8-2.72 18.752-6.144 5.872-3.376 10.752-7.808 14.576-12.912 0.064-0.032 0.144-0.064 0.224-0.096l3.152-4.816c3.984-9.152 13.104-15.568 23.728-15.568 4.64 0 8.992 1.232 12.752 3.376h0.016l8.72 4.368c0.080-0.016 0.16-0.016 0.24-0.016 5.776 2.432 12.128 3.792 18.784 3.792 6.576 0 12.832-1.312 18.544-3.696 0.032 0 0.064 0 0.112 0.016l0.96-0.48c1.36-0.608 2.688-1.264 3.968-1.984l3.968-1.984h0.016c3.776-2.144 8.128-3.376 12.752-3.376 10.624 0 19.744 6.416 23.728 15.568v0l3.28 5.008h-0.608c0.592 0.256 1.184 0.528 1.776 0.8 3.728 4.848 8.432 9.072 14.048 12.32 5.584 3.248 11.568 5.232 17.584 6.080 0.448 0.336 0.912 0.656 1.36 0.992l-0.352-0.608 5.968 0.352c9.92-1.12 20.032 3.584 25.328 12.784 2.32 4.016 3.424 8.4 3.44 12.736v0.016l0.256 4.432c0.016 1.472 0.112 2.944 0.256 4.432l0.064 1.248c0.032 0.048 0.064 0.080 0.080 0.128 0.816 6.064 2.784 12.064 6.016 17.696 3.264 5.68 7.52 10.432 12.416 14.192 0.176 0.384 0.352 0.768 0.512 1.152v-0.496l5.008 3.28c9.152 3.984 15.568 13.104 15.568 23.728 0 4.64-1.232 8.992-3.36 12.752v0zM314.72 251.136v-29.696h-112.064c1.216 11.216 4.848 21.856 10.928 31.92 6.064 10.048 18.048 23.376 35.952 39.984 14.4 13.424 23.248 22.528 26.512 27.312 4.4 6.592 6.592 13.12 6.592 19.568 0 7.136-1.92 12.608-5.744 16.448-3.84 3.824-9.12 5.744-15.872 5.744-6.672 0-11.984-2.016-15.936-6.032-3.952-4.016-6.224-10.688-6.832-20.032l-31.856 3.184c1.888 17.6 7.856 30.224 17.856 37.888 10.016 7.664 22.528 11.488 37.536 11.488 16.464 0 29.392-4.432 38.8-13.312 9.408-8.88 14.112-19.904 14.112-33.104 0-7.504-1.344-14.656-4.032-21.44-2.688-6.784-6.96-13.904-12.8-21.328-3.872-4.928-10.848-12.016-20.928-21.28-10.080-9.248-16.48-15.392-19.168-18.432-2.688-3.040-4.88-6-6.544-8.88h63.488z" />
<glyph unicode="&#xe65c;" d="M438.288 437.376l-58.336-35.488-0.416-32.080-128.768-128.448-17.648 17.648c-6.256 6.256-16.384 6.256-22.64 0-6.24-6.24-12.016-10.592-12.016-10.592l6.56-6.56c-0.064 0.064-0.144 0.128-0.208 0.192-31.808-31.792-52.32-40.992-52.32-40.992l-99.808-101.136c-6.256-6.272-6.256-16.352 0-22.624l56.576-56.576c6.24-6.256 16.368-6.256 22.624 0l99.792 101.136c0 0 9.184 20.48 41.024 52.336l5.664-5.664c0 0 5.040 5.056 11.312 11.312 6.256 6.256 6.256 16.368 0 22.624l-17.152 17.152 128.288 128.912 32.752 0.016 35.248 58.304-30.528 30.528zM63.664 89.568l101.568 101.568 11.312-11.296-101.568-101.584-11.312 11.312zM86.288 66.224l101.568 101.6 11.312-11.344-101.568-101.568-11.312 11.312zM120.224 32.288l-11.312 11.312 101.568 101.584 11.328-11.312-101.584-101.584z" />
<glyph unicode="&#xe65d;" d="M344 144.192c30.944 0 56-32.256 56-72 0-39.776-25.056-72-56-72s-56 32.224-56 72c0 23.968 9.216 45.056 23.232 58.16l-55.232 79.28-55.248-79.28c14.032-13.104 23.248-34.192 23.248-58.16 0-39.776-25.072-72-56-72-30.928 0-56 32.224-56 72 0 39.744 25.072 72 56 72 3.184 0 6.272-0.56 9.312-1.216l55.6 99.808-58.096 83.392c-47.376 82.064-9.92 121.664-9.92 121.664l91.104-163.6 91.104 163.584c0 0 37.456-39.6-9.92-121.664l-58.096-83.392 55.6-99.808c3.024 0.672 6.128 1.232 9.312 1.232zM168 112.496c-17.664 0-32-17.904-32-40s14.336-40 32-40 32 17.904 32 40-14.336 40-32 40zM256 254.832c-8.832 0-16-7.152-16-16 0-8.832 7.168-16 16-16 8.848 0 16 7.168 16 16 0 8.848-7.152 16-16 16zM312 72.496c0-22.096 14.336-40 32-40s32 17.904 32 40-14.336 40-32 40-32-17.904-32-40z" />
<glyph unicode="&#xe65e;" d="M0 146.192l178.192-178.192c0 0 42.544 100.976-17.328 160.848-59.216 59.216-160.864 17.344-160.864 17.344zM478 132.032l-90.496-90.496 11.312-11.312 90.496 90.496-11.312 11.312zM523.248 109.408l-101.808 101.84c-12.496 12.464-32.784 12.464-45.248 0l-8.928-8.928-24.96 24.96 44.752 44.752c12.496 12.496 11.088 34.176-1.408 46.672l-55.152 55.152c-12.496 12.496-32.752 12.496-45.248 0l-40.688-39.264-21.44 21.44 1.456 1.44c12.496 12.496 12.496 32.768 0 45.264l-101.824 101.84c-12.496 12.496-32.752 12.496-45.264 0l-67.872-67.888c-12.496-12.496-12.496-32.768 0-45.264l101.824-101.824c12.496-12.496 32.752-12.496 45.264 0l22.256 22.256 22.048-22.24-40.944-40.944c-12.496-12.496-7.776-82.048-7.776-82.048l27.568-27.568c0 0 69.536-4.72 82.032 7.776l35.424 35.408 24.96-24.96-13.984-13.984c-12.496-12.496-12.496-32.752 0-45.248l101.84-101.808c12.496-12.496 32.752-12.496 45.248 0l67.872 67.872c12.496 12.544 12.496 32.8 0 45.296zM20.928 425.376l67.888 67.888c6.24 6.256 16.368 6.256 22.624 0l-90.512-90.512c-6.256 6.24-6.256 16.384 0 22.624zM32.24 391.44l90.512 90.512 11.312-11.312-90.512-90.512-11.312 11.312zM54.864 368.816l90.512 90.512 11.312-11.328-90.496-90.496-11.328 11.312zM77.504 346.176l90.496 90.512 11.328-11.312-90.512-90.512-11.312 11.312zM100.128 323.552l90.512 90.512 11.312-11.312-90.512-90.512-11.312 11.312zM145.376 300.928c-6.24-6.256-16.368-6.256-22.624 0l90.512 90.512c6.256-6.256 6.256-16.384 0-22.624l-67.888-67.888zM190.528 216.032l-8.48 8.496 116.96 116.96 8.496-8.48-116.976-116.976zM319.6 132.032l67.904 67.904c6.256 6.224 16.368 6.224 22.624 0l-90.528-90.528c-6.256 6.256-6.256 16.368 0 22.624zM511.936 75.472l-67.872-67.872c-6.256-6.256-16.368-6.256-22.624 0l-67.888 67.888 90.496 90.496-11.312 11.312-90.528-90.496-11.312 11.312 90.528 90.528 90.496-90.528c6.272-6.272 6.272-16.4 0.016-22.64zM500.624 109.408l-90.496-90.496 11.312-11.312 90.496 90.496-11.312 11.312zM455.376 154.656l-90.496-90.496 11.312-11.312 90.496 90.496-11.312 11.312z" horiz-adv-x="528" />
<glyph unicode="&#xe65f;" d="M432 16l-31.984 0.992v-32.992h-48v32h-191.008l-0.992-32h-48v31.008l-32.016 0.992c-17.664 0-32 14.336-32 32v384c0 17.664 14.336 32 32 32h352c17.664 0 32-14.336 32-32v-384c0-17.664-14.336-32-32-32zM416 416h-320v-63.328l-15.664 0.32v-49.328h15.664v-126.672h-16v-48.992h16v-64h320v352zM400 80h-288v48h16v48.992h-16v127.008h16l0.336 48.672h-16.336v47.328h288v-320zM232.992 311.008c-35.344 0-64-28.656-64-64s28.656-64 64-64c35.36 0 64 28.656 64 64s-28.64 64-64 64zM376 295.712c0 8.848-7.152 16-16 16-8.832 0-16-7.152-16-16 0-5.856 3.312-10.768 8-13.552v-84.624c-4.688-2.784-8-7.68-8-13.552 0-8.832 7.168-16 16-16 8.848 0 16 7.168 16 16 0 6.304-3.712 11.616-8.992 14.224v83.28c5.28 2.624 8.992 7.936 8.992 14.224zM232 220c-13.248 0-24 10.752-24 24 0 13.264 10.752 24 24 24 13.264 0 24-10.736 24-24 0-13.248-10.736-24-24-24z" />
<glyph unicode="&#xe660;" d="M96.928 370.64l10.976-10.976-44.928-44.928 35.008-35.008 45.136 45.136 10.256-10.256-45.136-45.152 34.56-34.544 102.656 102.656-124.992 124.256-102.288-102.288 33.824-33.84 44.928 44.944zM369.584 213.456l-102.656-102.672 34.544-34.544 45.152 45.136 10.256-10.256-45.136-45.136 35.008-35.008 44.912 44.928 10.976-10.976-44.912-44.928 33.808-33.824 102.304 102.304-124.256 124.976zM477.152 344.784c12.496 12.512 12.592 32.72 0.192 45.136l-56.192 56.176c-12.4 12.4-32.624 12.336-45.12-0.192l-34.72-34.72 101.12-101.12 34.72 34.72zM54.368 64.928l41.968-41.968 84.544 30.032-96.48 96.48-30.032-84.544zM330.4 400.912l-238.16-238.176 101.904-101.904 238.176 238.176-101.92 101.904zM138.512 162.944l191.696 191.696 11.168-11.168-191.712-191.712-11.152 11.184zM160.848 140.592l191.68 191.696 11.168-11.168-191.696-191.68-11.152 11.152zM183.184 118.272l191.696 191.696 11.152-11.168-191.68-191.696-11.168 11.168zM31.264-0.16l49.056 17.872-31.184 31.184-17.872-49.056z" />
<glyph unicode="&#xe661;" d="M416.544 211.728l-65.44 65.44h38.336c-0.352 0.96-0.72 1.904-1.088 2.848-22.736 57.632-78.928 98.4-144.64 98.4-85.84 0-155.44-69.6-155.44-155.44 0-85.856 69.6-155.456 155.44-155.456 63.152 0 117.504 37.664 141.824 91.728 0.24 0.496 0.384 1.056 0.608 1.584l41.68-41.424c-0.272-0.48-0.464-1.024-0.752-1.536-0.064-0.112-0.128-0.224-0.192-0.32-36.784-63.552-105.504-106.288-184.208-106.288-117.44 0.032-212.672 95.264-212.672 212.736s95.232 212.704 212.704 212.704c98.208 0 180.848-66.528 205.328-156.992 0.24-0.832 0.304-1.712 0.512-2.544h33.456l-65.456-65.44z" />
<glyph unicode="&#xe662;" d="M95.456 211.728l65.44 65.44h-38.352c0.352 0.96 0.72 1.904 1.072 2.848 22.752 57.632 78.944 98.4 144.64 98.4 85.856 0 155.456-69.6 155.456-155.44 0-85.856-69.6-155.456-155.456-155.456-63.136 0-117.488 37.664-141.808 91.728-0.24 0.496-0.384 1.056-0.624 1.584l-41.68-41.424c0.288-0.48 0.48-1.024 0.768-1.536 0.064-0.112 0.128-0.224 0.192-0.32 36.784-63.552 105.504-106.288 184.208-106.288 117.472 0 212.704 95.232 212.704 212.704s-95.248 212.736-212.72 212.736c-98.208 0-180.848-66.528-205.328-156.992-0.24-0.832-0.32-1.712-0.512-2.544h-33.456l65.456-65.44z" />
<glyph unicode="&#xe663;" d="M373.936 7.536c0 0 5.36 32.192-27.696 71.504 32.176 90.256 36.64 172.448 36.64 172.448s66.128-15.2 66.128-80.416c-0.016-111.696-75.072-163.536-75.072-163.536zM191.664 46.752c0 0-44.288 142.128-44.288 201.088 0 26.528 2.992 50.128 7.648 71.552h201.76c4.688-21.44 7.696-45.056 7.696-71.568 0-58.064-44.16-201.072-44.16-201.072h-128.656zM255.84 286.896c-22.688 0-41.088-18.4-41.088-41.104 0-22.688 18.4-41.104 41.088-41.104 22.704 0 41.104 18.4 41.104 41.104 0.016 22.704-18.4 41.104-41.104 41.104zM247.008 470.464v55.968h16v-54.544c18.288-13.312 67.776-55.648 90.16-137.2h-194.56c21.632 79.312 68.736 121.184 88.4 135.776zM138.064 7.536c0 0-75.056 51.84-75.056 163.536 0 65.216 66.128 80.416 66.128 80.416s4.464-82.192 36.624-172.448c-33.072-39.328-27.696-71.504-27.696-71.504zM283.056-0.72l-13.408 13.408-14.288-44.688-16.992 44.688-11.616-23.216-16.992 42h92.032l-18.736-32.192z" />
<glyph unicode="&#xe664;" d="M383.632 16.56v30.912h63.808v63.808h32.912v-94.72h-96.72zM447.44 384.528h-63.808v30.912h96.72v-94.72h-32.912v63.808zM48.56 320.72h-32.896v94.72h96.72v-30.912h-63.824v-63.808zM79.472 351.632h337.056v-271.248h-337.056v271.248zM112.368 111.28h271.248v209.44h-271.248v-209.44zM144.288 287.808h208.432v-143.632h-208.432v143.632zM48.56 47.472h63.808v-30.912h-96.704v94.72h32.912v-63.808z" />
<glyph unicode="&#xe665;" d="M438.512 353.888l-42.64 42.64-78.8-78.8-61.040 61.040-0.064-154.88 155.568 0.272-51.808 50.928 78.784 78.8zM137.232 153.872l-71.248-71.248 42.64-42.656 71.248 71.28 59.712-59.712 0.064 155.744-156.544 0.72 54.128-54.128z" />
<glyph unicode="&#xe666;" d="M415.84 383.328l-0.064-155.76-59.712 59.728-71.264-71.28-42.64 42.64 71.264 71.264-54.144 54.128 156.56-0.72zM183.904 115.12l51.808-50.912-155.552-0.272 0.064 154.88 61.040-61.040 78.8 78.784 42.64-42.64-78.8-78.8z" />
<glyph unicode="&#xe667;" d="M74.992 302.096l148.592-142.928v86.592c45.008 0 159.568-0.992 159.568-118.816 0-61.68-43.744-113.152-101.904-125.056 93.472 12.672 165.744 91.952 165.744 188.896 0 180.096-192.416 181.632-223.408 181.632v73.696l-148.592-144.016z" />
<glyph unicode="&#xe668;" d="M256 403.2c-98.976 0-179.2-80.224-179.2-179.2s80.224-179.2 179.2-179.2c98.944 0 179.2 80.224 179.2 179.2 0 98.976-80.256 179.2-179.2 179.2z" />
<glyph unicode="&#xe669;" d="M495.472 290.304c-2.864 62.304-27.808 124.464-76.288 172.048-48.56 47.648-112.016 72.144-175.6 74.88l-3.504 35.408c73.552-4.4 145.152-32.976 201.52-88.272 56.48-55.44 85.936-125.584 90.336-197.92l-36.464 3.856zM447.6 282.656l-35.104 4.848c0.576 43.232-15.584 87.008-49.2 120-32.96 32.336-76.464 48.224-119.664 48.32l-6.336 34.736c53.504-1.296 106.96-21.632 147.792-61.68 41.536-40.832 61.92-92.752 62.512-146.224zM362.912 284.736l-31.152 8.624c3.664 22.048-8.096 41.312-25.424 58.336-15.728 15.44-36.864 22.368-57.424 20.832l-12.048 34.56c32.864 2.128 66.432-9.136 91.552-33.792 24.768-24.32 36.272-56.736 34.496-88.56zM296.896 303.856c0-22.416-18.512-40.592-41.36-40.592-7.888 0-15.184 2.288-21.456 6.048l-17.776-17.472 128.64-124.896c-3.152-3.712-6.448-7.44-10.256-11.168-72.128-70.784-189.072-70.784-261.216 0-72.144 70.816-72.144 185.584 0 256.368 3.296 3.264 6.592 6 9.888 8.768l121.168-117.648 17.392 17.072c-4.848 6.64-7.76 14.72-7.76 23.52 0 22.416 18.528 40.592 41.376 40.592s41.36-18.16 41.36-40.592zM139.040 61.632c-1.52 0 42.032-93.632 42.032-93.632h-181.072l62.464 144.656c0 0 18.96-27.632 76.576-51.024z" />
<glyph unicode="&#xe66a;" d="M496 224h-16v-128q0-26.496-18.752-45.248t-45.248-18.752v-16q0-6.496-4.752-11.248t-11.248-4.752h-32q-6.496 0-11.248 4.752t-4.752 11.248v16h-224v-16q0-6.496-4.752-11.248t-11.248-4.752h-32q-6.496 0-11.248 4.752t-4.752 11.248v16q-26.496 0-45.248 18.752t-18.752 45.248v288q0 26.496 18.752 45.248t45.248 18.752h352q26.496 0 45.248-18.752t18.752-45.248v-32h16q6.496 0 11.248-4.752t4.752-11.248v-96q0-6.496-4.752-11.248t-11.248-4.752zM160 64q40 0 68 28t28 68-28 68-68 28-68-28-28-67.744 28-68 68-28.256zM416 368q0 6.496-4.752 11.248t-11.248 4.752h-320q-6.496 0-11.248-4.752t-4.752-11.248v-64q0-6.496 4.752-11.248t11.248-4.752h48l48 64 48-64h176q6.496 0 11.248 4.752t4.752 11.248v64zM160 192q13.504 0 22.752-9.248t9.248-22.752-9.248-22.752-22.496-9.248-22.752 9.248-9.504 22.752 9.248 22.752 22.752 9.248z" />
<glyph unicode="&#xe66b;" d="M496 15.936h-464c-17.664 0-32 14.304-32 31.92v271.424c0 17.648 14.336 31.936 32 31.936h339.008l-132.256 71.888c-2.88-5.296-8.288-9.024-14.752-9.024-9.392 0-16.992 7.6-16.992 16.96 0 9.36 7.6 16.96 16.992 16.96s16.992-7.6 16.992-16.976c0-2.24-0.48-4.336-1.28-6.304l190.288-73.52h66c17.664 0 32-14.304 32-31.936v-271.424c0-17.6-14.336-31.904-32-31.904zM448 63.504c17.664 0 32 14.304 32 31.936s-14.336 31.92-32 31.92c-17.68 0-32-14.304-32-31.92 0-17.648 14.32-31.936 32-31.936zM352 63.824c17.664 0 32 14.304 32 31.936s-14.336 31.92-32 31.92-32-14.304-32-31.92c0-17.632 14.336-31.936 32-31.936zM168 303.312c-66.272 0-120-53.616-120-119.728 0-66.144 53.728-119.744 120-119.744 66.288 0 120 53.616 120 119.744 0 66.112-53.712 119.728-120 119.728zM480 303.312h-160v-47.888h88l16 31.92 16-31.92h40v47.888zM256 159.632h12.944c-1.312-5.52-3.088-10.832-5.248-15.968h-7.696v15.968zM256 191.552h15.184c0.224-2.672 0.816-5.232 0.816-7.968s-0.592-5.312-0.816-7.984h-15.184v15.952zM256 223.488h7.872c2.16-5.088 3.664-10.496 4.992-15.968h-12.864v15.968zM224 239.456v15.968h16v-15.968h-16zM192 95.76h16v-7.664c-5.136-2.128-10.48-3.856-16-5.2v12.864zM192 127.68h16v-15.968h-16v15.968zM192 159.632h16v-15.968h-16v15.968zM192 191.552h16v-15.952h-16v15.952zM192 223.488h16v-15.968h-16v15.968zM192 255.424h16v-15.968h-16v15.968zM192 284.224c5.504-1.344 10.864-3.072 16-5.2v-7.648h-16v12.848zM160 80.64v15.12h16v-15.392c-2.656-0.208-5.28-0.576-8-0.576-2.752 0-5.312 0.624-8 0.848zM160 127.68h16v-15.968h-16v15.968zM160 159.632h16v-15.968h-16v15.968zM160 191.552h16v-15.952h-16v15.952zM160 223.488h16v-15.968h-16v15.968zM160 255.424h16v-15.968h-16v15.968zM160 286.496c2.688 0.224 5.248 0.848 8 0.848 2.72 0 5.344-0.368 8-0.576v-15.392h-16v15.12zM128 95.76h16v-12.736c-5.472 1.36-10.896 2.912-16 5.072v7.664zM128 127.68h16v-15.968h-16v15.968zM128 159.632h16v-15.968h-16v15.968zM128 191.552h16v-15.952h-16v15.952zM128 223.488h16v-15.968h-16v15.968zM128 255.424h16v-15.968h-16v15.968zM128 278.992c5.104 2.192 10.528 3.728 16 5.104v-12.72h-16v7.616zM96 127.68h16v-15.968h-16v15.968zM96 159.632h16v-15.968h-16v15.968zM96 191.552h16v-15.952h-16v15.952zM96 223.488h16v-15.968h-16v15.968zM96 255.424h16v-15.968h-16v15.968zM240 207.52h-16v15.968h16v-15.968zM240 175.6h-16v15.952h16v-15.952zM240 143.664h-16v15.968h16v-15.968zM240 111.712h-16v15.968h16v-15.968zM67.056 159.632h12.944v-15.968h-7.68c-2.16 5.136-3.952 10.448-5.264 15.968zM64 183.584c0 2.736 0.608 5.296 0.816 7.968h15.184v-15.952h-15.184c-0.224 2.672-0.816 5.248-0.816 7.984zM72.128 223.488h7.872v-15.968h-12.864c1.328 5.472 2.832 10.864 4.992 15.968zM128-0.032c0-8.816-7.152-15.968-16-15.968h-32c-8.832 0-16 7.152-16 15.968s0 15.968 0 15.968h64c0 0 0-7.152 0-15.968zM464-0.032c0-8.816-7.152-15.968-16-15.968h-32c-8.848 0-16 7.152-16 15.968s0 15.968 0 15.968h64c0 0 0-7.152 0-15.968z" horiz-adv-x="528" />
<glyph unicode="&#xe66c;" d="M256 0.672c-123.344 0-223.328 99.984-223.328 223.328s99.984 223.328 223.328 223.328c123.344 0 223.344-99.984 223.344-223.328s-100-223.328-223.344-223.328zM366.72 391.168c-59.568 39.984-110.064 33.408-110.064 33.408l-0.048-144.128c-20.304-0.512-37.76-11.712-47.328-28.176l-122.032 78.176c0 0-32.336-31.664-32.336-103.424s30.992-106.432 30.992-106.432l123.568 74.816c9.616-16.304 26.992-27.344 47.152-27.856l0.048-146.144c0 0 50.512-6.576 110.064 33.392 59.6 39.984 69.056 81.136 69.056 81.136l-127.712 62.192c4.064 7.776 6.56 16.496 6.56 25.872 0 8.48-2 16.432-5.344 23.664l129.184 61.024c-0.016 0.016-12.16 42.512-71.76 82.48zM258.016 191.664c-17.856 0-32.336 14.48-32.336 32.336s14.48 32.336 32.336 32.336c17.856 0 32.32-14.48 32.32-32.336s-14.464-32.336-32.32-32.336z" />
<glyph unicode="&#xe66d;" d="M256 432c-114.88 0-208-93.12-208-208s93.12-208 208-208 208 93.12 208 208-93.12 208-208 208zM256 48c-97.2 0-176 78.8-176 176s78.8 176 176 176 176-78.8 176-176-78.8-176-176-176zM233.472 285.216c6.704 3.536 10.048 7.952 10.048 13.248 0 3.344-1.136 6.128-3.424 8.336-2.304 2.208-5.2 3.312-8.72 3.312-8.816 0-20.96-5.12-36.448-15.344-18.32-12-32.88-26.592-43.696-43.792-10.816-17.2-16.24-34.192-16.24-50.96 0-7.936 1.504-15.824 4.496-23.68 2.992-7.84 7.040-14.496 12.144-19.984 10.736-11.824 23.584-17.728 38.544-17.728 15.664 0 28.432 5.392 38.288 16.16 4.048 4.4 7.248 9.664 9.648 15.744 2.368 6.096 3.568 12.128 3.568 18.128 0 12.704-3.52 23.552-10.544 32.56s-16.288 14.288-27.712 15.872l-4.224 0.256-3.168 0.544c-5.264 0.704-7.92 2.736-7.92 6.080 0 3.536 3.44 9.088 10.32 16.672 7.168 7.728 18.848 15.936 35.040 24.576zM359.84 285.216c6.72 3.536 10.064 7.952 10.064 13.248 0 3.344-1.136 6.128-3.44 8.336-2.288 2.208-5.2 3.312-8.736 3.312-8.816 0-20.992-5.12-36.512-15.344-18.336-12-32.976-26.592-43.904-43.792s-16.4-34.192-16.4-50.96c0-7.936 1.504-15.824 4.496-23.68 3.008-7.84 7.040-14.496 12.16-19.984 10.768-11.824 23.712-17.728 38.88-17.728 15.536 0 28.32 5.392 38.368 16.16 4.048 4.4 7.28 9.616 9.664 15.616 2.368 6.016 3.568 12.096 3.568 18.272 0 12.704-3.584 23.504-10.72 32.416-7.152 8.912-16.464 14.24-27.952 16l-3.984 0.256-3.44 0.544c-5.28 0.704-7.936 2.736-7.936 6.080 0 3.536 3.536 9.088 10.592 16.672 7.408 8.096 19.152 16.288 35.232 24.576z" />
<glyph unicode="&#xe66e;" d="M256 432c-114.88 0-208-93.12-208-208s93.12-208 208-208 208 93.12 208 208-93.12 208-208 208zM256 48c-97.2 0-176 78.8-176 176s78.8 176 176 176 176-78.8 176-176-78.8-176-176-176zM234.432 291.664c-10.784 11.824-23.728 17.728-38.896 17.728-15.52 0-28.32-5.376-38.352-16.144-4.048-4.416-7.28-9.616-9.664-15.616-2.368-6-3.568-12.096-3.568-18.256 0-12.704 3.584-23.52 10.72-32.432 7.152-8.912 16.464-14.24 27.952-16l3.984-0.256 3.44-0.544c5.296-0.704 7.952-2.736 7.952-6.080 0-3.536-3.536-9.088-10.608-16.672-7.424-8.112-19.168-16.336-35.248-24.608-6.72-3.536-10.064-7.936-10.064-13.232 0-3.36 1.136-6.144 3.44-8.336 2.288-2.208 5.2-3.296 8.736-3.296 8.816 0 20.992 5.104 36.512 15.344 18.336 12 32.992 26.592 43.92 43.808 10.944 17.184 16.4 34.176 16.4 50.944 0 7.936-1.504 15.824-4.496 23.68-2.992 7.84-7.056 14.496-12.16 19.968zM360.368 291.664c-10.72 11.824-23.568 17.728-38.528 17.728-15.664 0-28.432-5.376-38.288-16.144-4.064-4.416-7.264-9.664-9.648-15.744-2.384-6.096-3.568-12.128-3.568-18.128 0-12.704 3.52-23.568 10.544-32.56s16.288-14.288 27.712-15.872l4.224-0.256 3.152-0.544c5.28-0.704 7.92-2.736 7.92-6.080 0-3.536-3.44-9.088-10.304-16.672-7.216-7.76-18.928-15.968-35.104-24.608-6.704-3.536-10.048-7.936-10.048-13.232 0-3.36 1.152-6.144 3.44-8.336 2.304-2.208 5.2-3.296 8.72-3.296 8.8 0 20.96 5.104 36.432 15.344 18.32 12 32.896 26.592 43.712 43.808 10.816 17.184 16.24 34.176 16.24 50.944 0 7.936-1.488 15.824-4.48 23.68-2.96 7.84-7.008 14.496-12.128 19.968z" />
<glyph unicode="&#xe66f;" d="M448 80h-48v16c8.848 0 16 7.168 16 16 0 8.848-7.152 16-16 16h-32c-8.848 0-16-7.152-16-16 0-8.832 7.152-16 16-16v-16h-208v16c8.848 0 16 7.168 16 16 0 8.848-7.152 16-16 16h-32c-8.848 0-16-7.152-16-16 0-8.832 7.152-16 16-16v-16h-64c-17.664 0-32 14.336-32 32v224c0 17.664 14.336 32 32 32h384c17.664 0 32-14.336 32-32v-224c0-17.664-14.336-32-32-32zM160 323.008c-19.328 0-35.008-20.592-35.008-46s15.68-46 35.008-46 35.008 20.592 35.008 46-15.68 46-35.008 46zM215.84 212.992c-8.624 5.744-33.456 9.568-33.456 9.568s-16.096-17.2-22.928-17.2c-6.848 0-22.944 17.2-22.944 17.2s-24.832-3.808-33.44-9.568c-8.624-5.728-12.432-36.176-12.432-36.176h137.84c0.016 0.016-2.512 29.44-12.64 36.176zM416 304h-144v-16h144v16zM416 272h-144v-16h144v16zM416 240h-144v-16h144v16zM416 208h-144v-16h144v16z" />
<glyph unicode="&#xe670;" d="M368 303.504c0 8.848-7.168 16-16 16h-48c0 0 0.528 19.264 0.528 47.264 0 26-21.536 49.728-48.528 49.728s-47.808-22.576-47.808-49.584c0-26-0.192-47.424-0.192-47.424h-48c-8.848 0-16-7.152-16-16 0-8.832 0-31.008 0-31.008h224c0 0.016 0 22.192 0 31.024zM256 336.496c-8.848 0-16 7.168-16 16 0 8.848 7.152 16 16 16 8.832 0 16-7.152 16-16 0-8.832-7.168-16-16-16zM448 303.504l-64 0.992 0.336-49.664h-256.336v47.664l-64 0.992c-17.664 0-32-14.336-32-32v-224c0-17.664 14.336-32 32-32h384c17.664 0 32 14.336 32 32v224c0 17.68-14.336 32.016-32 32.016zM160 210.496c19.328 0 35.008-20.592 35.008-46s-15.68-46-35.008-46-35.008 20.592-35.008 46 15.68 46 35.008 46zM90.672 64.336c0 0 3.792 30.432 12.416 36.176 8.608 5.744 33.44 9.568 33.44 9.568s16.096-17.2 22.944-17.2c6.832 0 22.928 17.2 22.928 17.2s24.832-3.808 33.456-9.568c10.128-6.752 12.656-36.176 12.656-36.176h-137.84zM416 79.504h-144v16h144v-16zM416 111.504h-144v16h144v-16zM416 143.504h-144v16h144v-16zM416 175.504h-144v16h144v-16z" />
<glyph unicode="&#xe671;" d="M448 336h-31.328v47.008l-64.672 0.992 0.336-48h-194.336l1.328 48-63.328-0.992v-48l-32 0.992c-17.664 0-32-14.336-32-32v-224c0-17.664 14.336-32 32-32h384c17.664 0 32 14.336 32 32v224c0 17.664-14.336 32-32 32zM368 368h32v-64h-32v64zM160 259.008c19.328 0 35.008-20.592 35.008-46s-15.68-46-35.008-46-35.008 20.592-35.008 46 15.68 46 35.008 46zM112 368h32v-64h-32v64zM90.672 112.832c0 0 3.792 30.432 12.416 36.176 8.608 5.744 33.44 9.568 33.44 9.568s16.096-17.2 22.944-17.2c6.832 0 22.928 17.2 22.928 17.2s24.832-3.808 33.456-9.568c10.128-6.752 12.656-36.176 12.656-36.176h-137.84zM416 128h-144v16h144v-16zM416 160h-144v16h144v-16zM416 192h-144v16h144v-16zM416 224h-144v16h144v-16z" />
<glyph unicode="&#xe672;" d="M416 112h-32v32h16v32h-304v-32h16v-32h-32c-8.832 0-16 7.168-16 16v160c0 15.472 64 32 176 32 5.936 0 11.184 0 16 0 111.008 0 176-16.16 176-32v-160c0-8.832-7.152-16-16-16zM376 272c-13.248 0-24-10.752-24-24s10.752-24 24-24 24 10.752 24 24-10.752 24-24 24zM128 416c0 8.848 7.168 16 16 16h208c8.848 0 16-7.152 16-16v-80h-240v80zM368 16c0-8.832-7.152-16-16-16h-208c-8.832 0-16 7.168-16 16v144h240v-144zM336 144h-176v-16h176v16zM336 112h-176v-16h176v16zM336 80h-176v-16h176v16zM336 48h-176v-16h176v16z" />
<glyph unicode="&#xe673;" d="M188.224 134.256v0l-3.232 4.944c-0.080 0.032-0.144 0.064-0.224 0.096-3.92 5.232-8.944 9.792-14.96 13.264-6.112 3.52-12.656 5.584-19.248 6.32-0.048 0.048-0.112 0.080-0.16 0.112l-9.456 0.56c-4.448 0.032-8.944 1.152-13.072 3.536-1.632 0.928-3.104 2.032-4.464 3.232l-77.328-151.728 63.36 7.76 33.856-51.856 71.408 147.856c-0.704-0.064-1.392-0.096-2.112-0.096-10.896 0-20.272 6.576-24.352 15.984zM386.544 161.68c-4.128-1.696-8.64-2.352-13.136-1.856v0l-6.128-0.352 0.368 0.624c-0.464-0.352-0.928-0.672-1.392-1.008-6.192-0.864-12.32-2.896-18.048-6.24-5.76-3.344-10.592-7.68-14.416-12.656-0.608-0.272-1.216-0.544-1.824-0.816h0.624l-3.36-5.136c-4.080-9.408-13.44-15.984-24.352-15.984-4.192 0-8.144 0.976-11.664 2.704l88.592-152.656 22.352 55.28 60.24-8.080-77.84 146.144zM322.864 143.152v0l3.28 5.008h-0.608c0.592 0.256 1.184 0.528 1.776 0.8 3.728 4.848 8.432 9.072 14.048 12.32 5.584 3.248 11.568 5.232 17.584 6.080 0.448 0.336 0.912 0.656 1.36 0.992l-0.352-0.608 5.968 0.352c9.92-1.12 20.032 3.584 25.328 12.784 2.32 4.016 3.424 8.4 3.44 12.736v0.016l0.256 4.432c0.016 1.472 0.112 2.944 0.256 4.432l0.064 1.248c0.032 0.048 0.064 0.080 0.080 0.128 0.816 6.064 2.784 12.064 6.016 17.696 3.264 5.68 7.52 10.432 12.416 14.192 0.176 0.384 0.352 0.768 0.512 1.152v-0.496l5.008 3.28c9.152 3.984 15.568 13.104 15.568 23.728 0 4.64-1.232 8.992-3.36 12.752v0.016l-1.984 3.968c-0.72 1.28-1.376 2.608-1.984 3.968l-0.448 0.88c0 0.032 0 0.064 0.016 0.096-2.4 5.728-3.728 12.032-3.728 18.64 0 6.704 1.36 13.072 3.824 18.88-0.016 0.080-0.016 0.16-0.016 0.24l4.32 8.64v0.016c2.144 3.76 3.36 8.112 3.36 12.752 0 10.624-6.4 19.744-15.568 23.728v0l-4.768 3.12c-0.096 0.24-0.208 0.48-0.32 0.72-5.168 3.808-9.648 8.704-13.072 14.592-3.472 5.984-5.504 12.4-6.24 18.864-0.080 0.112-0.16 0.224-0.24 0.32l-0.32 5.424c1.12 9.92-3.584 20.032-12.8 25.328-4.016 2.32-8.4 3.424-12.736 3.44v0l-4.432 0.256c-8 0.096-16.080 2.176-23.504 6.448-6.208 3.568-11.312 8.32-15.216 13.792-0.096 0.048-0.192 0.096-0.304 0.128l-2.624 4.016c-3.984 9.152-13.104 15.552-23.728 15.552-4.64 0-8.992-1.232-12.752-3.376h-0.016l-3.968-1.984c-6.976-3.904-15.008-6.144-23.568-6.144-7.312 0-14.24 1.632-20.464 4.544-0.032 0-0.064 0-0.112 0l-7.2 3.584c-3.76 2.144-8.112 3.376-12.752 3.376-10.624 0-19.744-6.4-23.728-15.568v0l-2.304-3.52c-0.24-0.096-0.48-0.208-0.72-0.32-3.936-5.744-9.168-10.72-15.584-14.448-6.4-3.712-13.296-5.792-20.208-6.368 0 0-0.016 0-0.016-0.016l-4.192-0.24c-0.624 0.064-1.232 0.112-1.856 0.144 0 0-0.016 0-0.016 0-9.296 0.368-18.496-4.304-23.456-12.928-2.32-4.016-3.424-8.4-3.44-12.736v-0.016l-0.464-7.808c-0.016-0.032-0.032-0.048-0.048-0.064-0.56-6.912-2.608-13.808-6.288-20.224-3.68-6.384-8.592-11.6-14.256-15.552-0.016-0.032-0.032-0.064-0.048-0.096l-3.536-2.304c-9.152-3.984-15.568-13.104-15.568-23.728 0-4.64 1.232-8.992 3.376-12.752v-0.016l3.632-7.248c0-0.032 0-0.064-0.016-0.112 2.896-6.192 4.512-13.104 4.512-20.4 0-8.56-2.24-16.592-6.144-23.568l-1.984-3.968v-0.016c-2.144-3.76-3.376-8.112-3.376-12.752 0-10.624 6.4-19.744 15.568-23.728v0l4.144-2.704c0.128-0.288 0.272-0.576 0.4-0.88 5.44-3.872 10.176-8.928 13.744-15.088 3.504-6.032 5.536-12.496 6.24-19.024 0.032-0.048 0.064-0.080 0.096-0.128l0.304-5.232c-1.12-9.92 3.584-20.016 12.784-25.328 4.016-2.32 8.416-3.424 12.736-3.44l0.016-0.016 9.2-0.544c0.048-0.032 0.112-0.080 0.16-0.112 6.416-0.72 12.8-2.72 18.752-6.144 5.872-3.376 10.752-7.808 14.576-12.912 0.064-0.032 0.144-0.064 0.224-0.096l3.152-4.816c3.984-9.152 13.104-15.568 23.728-15.568 4.64 0 8.992 1.232 12.752 3.376h0.016l8.72 4.368c0.080-0.016 0.16-0.016 0.24-0.016 5.776 2.432 12.128 3.792 18.784 3.792 6.576 0 12.832-1.312 18.544-3.696 0.032 0 0.064 0 0.112 0.016l0.96-0.48c1.36-0.608 2.688-1.264 3.968-1.984l3.968-1.984h0.016c3.776-2.144 8.128-3.376 12.752-3.376 10.608 0 19.744 6.416 23.712 15.568zM279.184 223.024h-25.568v113.12c-9.344-8.736-20.352-15.2-33.024-19.376v23.2c6.672 2.176 13.92 6.32 21.744 12.416s13.184 13.2 16.112 21.344h20.736v-150.704z" />
<glyph unicode="&#xe674;" d="M35.808 224c0-7.136 7.136-12.256 7.136-12.256l191.056-126.688c14.64-9.808 26.672-2.608 26.672 15.968v245.984c0 18.592-12.032 25.76-26.672 16l-191.056-126.72c0.032-0.032-7.136-5.152-7.136-12.288zM268.16 224c0-7.136 7.136-12.256 7.136-12.256l184.4-126.688c14.672-9.808 26.672-2.608 26.672 15.968v245.984c0 18.592-12 25.76-26.672 16l-184.4-126.72c0-0.032-7.136-5.152-7.136-12.288z" />
<glyph unicode="&#xe675;" d="M133.728 382.416l27.408-17.904c54.992-27.488 90.208-23.648 103.648-22.352 14.48-0.16 48.672-5.136 103.648 22.352l27.408 17.904c0 0 33.504 22.192 5.744 56.112l-17.728 23.136c0 0-24.672 33.152-57.824 0 0 0-49.344-50.88-49.344-60.144l-9.872 1.088-0.048 0.448-1.984-0.224-1.984 0.224-0.048-0.448-9.872-1.088c0 9.248-49.344 60.144-49.344 60.144-33.152 33.152-57.824 0-57.824 0l-17.728-23.136c-27.76-33.92 5.744-56.112 5.744-56.112zM313.68 415.408c0 0 8.128 15.024 23.152 0l10.016-9.248c0 0 9.184-7.904 0-17.088 0 0-23.904-29.936-48.576-33.024 0 0 5.408 23.136-9.248 38.544l24.672 20.816zM182.72 406.144l10.016 9.248c15.024 15.024 23.152 0 23.152 0l24.656-20.816c-14.656-15.424-9.248-38.544-9.248-38.544-24.672 3.088-48.576 33.024-48.576 33.024-9.184 9.184 0 17.088 0 17.088zM38.352 191.040h185.232v134.16h-204.896v-80.96h19.664zM310.72 325.2v-134.16h168.656v53.2h19.664v80.96zM310.72 103.904h168.656v-135.68h-168.656v135.68zM38.352 103.904h185.232v-135.68h-185.232v135.68zM289.28 325.2h-43.52v-157.696h-207.408v-40.96h207.408v-158.32h43.52v158.32h190.080v40.96h-190.080z" />
<glyph unicode="&#xe676;" d="M432.032 399.92h-368.080c-8.816 0-15.952 7.152-15.952 16 0 8.832 7.136 15.984 15.952 15.984h168.576v16c0 8.832 7.152 15.984 15.968 15.984s15.952-7.152 15.952-15.984v-16h167.584c8.832 0 15.968-7.168 15.968-15.984 0-8.848-7.136-16-15.968-16zM432.032 144.032h-368.080v239.904h368.080v-239.904zM112 271.488c0-35.408 28.656-64.112 64-64.112s64 28.704 64 64.112h-64v64.144c-35.344 0-64-28.72-64-64.144zM288.384 335.952h-15.952v-15.984h15.952v15.984zM288.384 303.968h-15.952v-15.984h15.952v15.984zM288.384 271.984h-15.952v-15.984h15.952v15.984zM288.384 240h-15.952v-16h15.952v16zM288.384 208h-15.952v-16h15.952v16zM384.16 335.952h-79.792v-15.984h79.792v15.984zM384.16 303.968h-79.792v-15.984h79.792v15.984zM384.16 271.984h-79.792v-15.984h79.792v15.984zM384.16 240h-79.792v-16h79.792v16zM384.16 208h-79.792v-16h79.792v16zM204.496 64.064h36.016v79.968h15.968v-79.968h35.456l-35.456 79.968h31.92l63.824-143.936h-31.904l-21.28 48h-42.56v-79.968h-15.968v79.968h-43.216l-21.616-48h-31.92l64.832 143.936h31.92l-36.016-79.968zM256.48 144.032v0 0 0zM240.512 144.032v0 0 0z" />
</font>
</defs>
</svg>
